<svg height="396pt" viewBox="0 0 360 396" width="360pt" xmlns="http://www.w3.org/2000/svg"><path d="m185.4 21.56c18.82-12.01 41.11-19.67 63.64-18.34 23.34 1.65 45.22 15.51 57.12 35.58 5.33 8.23 9.5 17.23 12.12 26.69 4.13 15.23 6.13 30.92 8.39 46.5 4.7 31.52 13.15 62.3 19 93.6.69 3.69 3.72 6.22 5.42 9.43 4.27 6.85 8.09 14.64 7.41 22.93-1.34 7.39-5.68 13.74-9.7 19.93-2.44 3.21-1.71 7.47-2.33 11.22-2.44 21.07-9.61 41.61-20.66 59.71-6.49 11.97-16.17 21.76-25.71 31.33-15.29 13.37-33.61 23.58-53.48 28.16-15.09 4.51-30.98 5.63-46.65 5.38-20.28-.32-40.38-5.31-58.65-14.04-27.24-14.33-51.46-34.94-68.52-60.68-7.55-11.02-14.47-22.68-18.48-35.5-5.46-15.89-7.33-32.89-6.34-49.62.84-10.47 2.71-20.86 5.31-31.02-8.02-6.3-15.93-13.12-21.09-22.07-4.23-5.8-7.42-12.26-9.72-19.05-6.61-.61-13.69-2.82-18.04-8.11-3.14-3.91-2.85-9.15-1.2-13.6-.61-3.03-2.82-5.7-2.42-8.97-.08-4.12 2.62-7.45 5.46-10.11-1.53-8.37 5.72-15.78 13.56-17.14 5.19-1.46 10.84.23 15.91-.89.96-7.63 5.03-15.5 12.22-18.92 5.96-2.95 14.89-.06 16.1 7.01 1.34 6.65-4.64 11.37-7.29 16.8-5.37 10.12 2.23 21.87-3 32.06-2.48 6.81-11.45 9.34-11.9 17.06-.15 7.44 3.88 14.3 8.26 20.05 3 2.73 5.04 6.51 8.62 8.57 3.44-8.56 7.56-16.83 11.79-25.02 4.03-6.16 6.92-12.96 10.99-19.1 11.15-17.06 21.69-34.57 34.2-50.69 6.26-10.14 14.52-18.79 21.91-28.09 4.11-5.19 9.21-9.46 13.88-14.12 5.72-5.2 11.1-10.82 17.44-15.29 5.57-3.76 10.71-8.11 16.43-11.64m38.51-7.01c-7.91.61-15.57 3.17-22.76 6.42-14.55 7.58-28.22 16.8-40.48 27.72-1.97 2-3.91 4.05-6.16 5.75-9.36 8.45-17.42 18.19-25.21 28.05-4.74 6.84-10.14 13.2-14.48 20.3-6.67 10-14.29 19.37-20.03 29.97-5.07 7.69-10.14 15.38-14.67 23.4-3.64 5.05-5.6 11-8.56 16.42-8.56 16.42-14.13 34.41-16.32 52.79l-.2-.19c-.76 15.07-1.72 30.49 2.27 45.21 1.84 7.61 5.03 14.82 8.87 21.61 6.17 10.41 15.32 18.78 25.58 25.08 6.02 4.1 12.97 6.76 20.16 7.88 20.76 5.05 42.55 3.12 63.09-1.93 12.89-4.16 25.28-9.93 36.46-17.6 7.67-3.98 13.48-10.45 19.9-16.08 4.11-4.31 8.8-8.15 12.07-13.19l-1.4-.06c.38-.14 1.14-.43 1.53-.58l.24-1.51.14 1.07c5.2-7 10.5-14.04 14.2-21.98 4.92-10.49 8.78-21.6 10.9-33 3.63-14.03 4.95-28.61 4.79-43.08-.06-4.1-.03-8.2.14-12.3.33-1.89.36-3.82.48-5.73.87-23.13 4.05-46.1 7.5-68.97 1.36-12.6 2.12-25.33 1.21-37.99-.67-8.62-3.49-17.08-8.63-24.08-2.32-3.15-4.96-6.12-8.27-8.25-8.66-5.87-19.65-6.18-29.75-6.21-4.2.32-8.5.09-12.61 1.06m53.17 9.18c2.68 5.5 5.46 11.1 6.18 17.26 1.18 9.61 2.38 19.28 1.69 28.97-.7 10.02-1.3 20.04-1.96 30.05-1.24 14.27-3.14 28.47-4.42 42.73.99-.02 2.98-.05 3.97-.07.08-.54.23-1.62.3-2.16.86.47 1.72.93 2.59 1.4-.1.31-.3.93-.4 1.24-2.19.09-4.39.17-6.58.24-.81 9.87-1.25 19.77-2.02 29.64-1.59 17.89-1.76 36.02-5.93 53.57-2.11 10.02-6.27 19.44-9.93 28.96-4.98 10-11.24 19.38-18.27 28.05-2.1.65-2.69 3.3-3.73 5.01-4.52 4.08-8.41 8.85-13.18 12.66-12.9 10.59-27.36 19.86-43.49 24.59-22.56 8.31-47.65 10.45-71.06 4.52 2.07 1.15 4.19 2.24 6.19 3.52 3.64 2.27 6.22 5.99 10.23 7.73 5.23 2.28 10.94 3.25 16.61 3.57-.27-1.07-.54-2.13-.81-3.18 3.73.16 7.21 1.56 10.32 3.56.07-.92.14-1.84.21-2.76 5.5.56 9.77 5.24 15.43 4.84 3.69-.15 7.38-.09 11.06-.15 2.33.05 3.82-2.11 5.59-3.3 3.7 3.29 7.01 7.3 11.77 9.11 4.99 2.14 11.45 1.93 15.36-2.24-8.3-2.05-16.32-5.04-24.39-7.8-2.49-2.17-5.3-3.91-7.8-6.07 3.22.15 6.42.55 9.6 1.09 1.13-2.06 2.23-4.13 3.31-6.2 2.84.15 5.33 1.56 7.6 3.19 4.64-.78 9.21-2.35 13.14-4.98 4.05-2.47 4.13-8.38 8.48-10.52 3.46-1.92 7.04-3.8 9.57-6.95 1.82.69 3.61 1.52 5.52 1.97 2.86-.95 5.59-2.35 8.6-2.83 6.64-2.54 10.68-8.76 15.6-13.53 1.13.01 2.27.03 3.41.05-.78 1.94.41 3.76 1.35 5.37 1.04-1.35 2.06-2.71 3.08-4.08-.44-2.16-.84-4.32-1.23-6.48-2.83-2.99-5.53-6.23-6.49-10.34.12-3.17 0-6.48 1.37-9.42 1.39-3.12 3.98-5.45 6.4-7.77-.69-3.23-1.51-6.68-.24-9.88 1.15-3.82 4.18-6.57 7.03-9.18-.45-5.83 1.36-11.39 3.25-16.79 1.41-2.14 2.78-4.37 3.4-6.87.78-4.34.59-8.73.23-13.09-.38-5.09 1.08-10.02 1.93-14.96-3.11-7.62-2.79-16.07-2.23-24.13.45-7.06 6.15-12.17 7.67-18.9.97-4.34 1.98-8.75 1.74-13.23.53-5.22.7-10.5.48-15.75.64-4.18-2.13-7.9-3.62-11.63 2.08.03 4.16.06 6.24.07.45 2.12.67 4.29.58 6.47.8.26 2.39.78 3.18 1.04.38 1.23.75 2.46 1.12 3.7 4.04 1.43 4.9-3.7 5.16-6.56 0-5.64-1.28-12.23-6.52-15.38.13.63.38 1.88.5 2.51-1.93.05-3.82.43-5.39 1.62-.38-4.91-1.4-9.75-1.68-14.68-.15-2.73-.87-5.49-.07-8.2 1.37-5.33.77-10.85.38-16.26 1.02-.05 2.04-.09 3.06-.12.98-4.6-.49-9.31-2.9-13.23-.77-3.71-1.26-7.48-.7-11.27.63-2.92-.92-5.67-3.12-7.46-4.09-3.32-7.73-7.24-12.32-9.9m15.62 5.08c4.25 6.24 7.82 12.99 10.6 20.01.12 1.11.37 3.34.49 4.45-3.12-2.07-4.84-5.46-7.29-8.18.67 2.85 1.22 5.95 3.23 8.22 1.44 1.33 3.4 1.81 5.2 2.48l.17.63c-.76 4.52-1.7 9.03-1.97 13.61-.17 2.46.48 5.35 2.89 6.56 2.66-.84 2.85-4.28 3.93-6.45 1.82 5.02 3.51 10.5 2.08 15.84-.46 2.31-2.02 4.52-1.34 6.94 1.03 4.63 2.54 9.14 3.76 13.72-.23-5.78-.23-11.56.3-17.32 1.1 6.43 1.68 12.96 2.77 19.39-.1 2.37.26 4.86-.69 7.11-.38 1.37-1.37 2.72-.91 4.2 1.34 7.08 4.13 13.8 5.5 20.88-.85 5.01-1.44 10.06-1.86 15.12-2.74-3.96-3.13-9.28-6.81-12.73-.53 7.43 1.83 14.64 4.31 21.54 1.3 3.39 2.83 7.17 6.44 8.7.43.06 1.29.19 1.72.26.13 4.25-.35 8.78 1.6 12.72 1.59 2.64 3.45 5.18 5.87 7.13 1.87 1.62 3.54 3.44 5.21 5.27-2.1-12.74-5.43-25.23-7.99-37.88-4.36-16.97-6.25-34.43-9.58-51.61-.84-7.93-2.82-15.67-3.84-23.57-1.27-8.7-2.95-17.36-5.5-25.79-1.56-5.32-4.38-10.12-6.5-15.21-2.6-6.2-6.94-11.46-11.79-16.04m6.94 45.82c-1.06 3.64-1.63 7.65-.47 11.34.38 2.62-.25 5.88 2.1 7.76 1.27 1.63 3.92.32 3.53-1.65-.45-6.12-3.48-11.63-5.16-17.45m-257.53 25.07c-1.28 2.75-.66 5.41 1.5 7.45 1.2-3.48 2.8-6.79 4.78-9.89 2.31-2.53 5.82-2.21 8.91-1.97.85-1.64.81-3.42-.18-4.98-1.61-.79-3.29-2.18-5.19-1.36-5.25 1.02-7.91 6.28-9.82 10.75m-30.13 19.03c.54 1.83 1.2 3.61 2.03 5.33-4.62.58-8.55 4.83-7.64 9.63 1.34 2.46 3.03 4.7 4.8 6.87-2.06 1.45-4.29 3.53-3.84 6.32.98 3.81 4.56 6.21 8.26 6.91-1.25-1.94-1.66-4.19-1.52-6.47 4.47 2.08 8.59 5.32 13.81 5.07 2.2.2 4.23 1.05 6.05 2.28.51-1.25 1.03-2.5 1.56-3.75-.99-1.74-2.07-3.43-3.2-5.08-5.3-2.8-11.3-3.71-17.16-4.59-.37-.6-1.12-1.81-1.49-2.41.27-.55.8-1.64 1.07-2.19-.17-1.87.07-3.73 1.13-5.31 1.97 1.23 3.85 2.61 5.82 3.84 3.37 2.21 7.71 2.46 11.56 1.63 2.85-.01 5.25 1.44 7.3 3.29 1.4-4.03-1.02-7.5-3.84-10.11-.36-.36-1.09-1.08-1.45-1.44l-.03.02c-1.66-.47-3.33-1.08-5.08-1.07-3.78-2.05-8.89-1.53-12.02-4.6.04-2.45 1.02-4.8 1.74-7.12 1.64-1.49 3.42.74 4.94 1.4 3.91 2.79 8.94 3.88 13.61 2.62 3.14.16 4.88 2.43 5.68 5.28 1.93-3.92.41-8.3-2.84-10.96l-.04-1.18-.83.38c-5.17-4.81-12.95-4.87-19.52-3.87-4.62.63-9.53 4.05-8.86 9.28m300.89 4.23c-.59 3.49.15 6.99.63 10.44-1-1.31-2-2.61-3.02-3.89.7 2.45 2.15 4.53 4.01 6.25.79-.59 2.51-.49 2.39-1.84-.17-3.93-2.13-7.58-4.01-10.96m-11.77 10.31c1.34 6.2 3.34 12.32 3.54 18.71.42 3.23.23 7.23 3.3 9.26 1.83.7 3.54-1.53 3.26-3.21-.59-4.85-2.31-9.47-3.79-14.1-1.46-3.85-2.83-8.12-6.31-10.66m3.41 43.3c1.46 2.01 4.23 2.02 6.4 2.79-4.64-5.59-6.65-12.64-8.07-19.61-2.99 5.25-1.86 12.11 1.67 16.82m-14.99 8.38c.81 2.23 1.96 4.77 4.44 5.52 3.22-1.06 4.08-4.81 5.43-7.53-2.48-1.53-5.05-3.13-6.69-5.61-1.71-2.6-2.46-5.68-3.6-8.54-1.14 5.3-1.46 10.98.42 16.16m25.61 8.02-.1-.06c-.37.56-1.09 1.67-1.46 2.22.73 1.26 1.02 2.99 2.44 3.7 14.16 6.45 23.65 21.1 25.56 36.35.3-1.25.67-2.48 1.11-3.69.82-1.39 2.64-1.01 3.97-1.37.3 4.89-1.51 9.51-3.67 13.79-3.67 8.16-8.55 15.85-14.98 22.11-4.03 4.73-8.85 9.19-14.94 10.97-2.53.81-5.59.49-7.43-1.57-1.35-2.17-1.31-4.93-.7-7.33.82-2.58 3.36-3.88 5.44-5.3-1.97-2.16-3.95-4.31-5.91-6.47-.07 1.66-.13 3.32-.18 4.99-2.54-6.81-8.48-13.37-16.26-13.26-5.26-.34-9.68 3.45-12.24 7.71-.69 1.74-.8 3.65-1.16 5.48 2.35 3.19 6.42 2.46 9.86 2.18 2.31 2.08 4.73 4.13 6.33 6.84-8.03-6.89-23.77-.29-22.41 10.75-.99 2.18.81 5.37 2.82 6.68 2.25 1.42 4.26-.78 6.01-1.94-2.24 4.49-3.54 11.4 1.68 14.38 3.77 2.46 7.14-1.62 10.87-1.85-2.17 2.25-2.26 5.41-1.31 8.21l.44.17c1.8 4.89 8.08 7.78 12.52 4.33-2.73-1.01-5.42-2.33-6.98-4.91-.06-.68-.18-2.04-.25-2.72.64-.03 1.91-.1 2.55-.13 2.58.26 5.45.79 7.68-.94 5.78-3.99 11.78-8.19 15.78-14.08 1.53-1.91.66-4.12-.73-5.78 8.21-5.6 14.57-13.46 20.98-20.97 4.15-4.89 6.54-10.9 9.99-16.25l.03-.55c3.27-5.38 3.22-12.01.97-17.75-4.5-11.45-11.61-22.3-21.95-29.28-3.91-3.16-9.13-7.97-14.37-4.66m-21.09 16.35c-1.7-2.92-3.09-6.02-5.03-8.8-1.36 5.78-1.62 12.79 2.82 17.36 1.9-.52 3.95-1.14 5.04-2.94 4.39-6.05 3.84-14.09 2.72-21.09.27 5.79-4.32 10.07-5.55 15.47m18.01 11.22c2.79-1.25 3.4-4.41 3.99-7.09-2.19 1.79-3.2 4.46-3.99 7.09m-9.52.35c-.45 5.03-.91 10.06-1.11 15.11.04 1.95-.22 4.53 1.84 5.6 2.44-.16 3.19-2.96 4.27-4.7-.97-.52-1.94-1.03-2.91-1.54-.61-4.82.01-9.94-2.09-14.47m-14.93 10.65c-3.18 2.73-3.71 7.12-4.44 10.98 4.43-.42 8.91-.16 13.15 1.25-1.38-3.85-1.87-7.98-3.39-11.78-.81-2.32-3.91-1.97-5.32-.45m42.65-.6c-1.37 6.77-4.29 13.07-6.8 19.47-1.7 4.36-4.61 8.05-6.91 12.08 3.33-.18 6.03-2.44 8.16-4.82 4.31-5.31 7.94-11.25 10.05-17.78-1.09-3.17-3.04-5.96-4.5-8.95m-18.2 21.29c2.42-2.29 3.76-5.42 4.14-8.7-2.02 2.55-3.45 5.52-4.14 8.7m21.91 24.59c-.05 2.47-.09 4.99-.79 7.4-2.68 9.69-6.6 19.1-12.14 27.52-3.11 3.04-5.33 6.82-8.2 10.07-1.97 2.24-4.7 3.83-6.02 6.61-.82.19-1.04.94-1.07 1.67-2.08 3.68-5.26 6.45-8.18 9.42-3.23.78-6.44 1.67-9.68 2.4-1.78 3.11-4.02 6.01-5.03 9.49-4.7 3.96-9.9 7.23-15.51 9.75-4.76.77-9.47 1.88-14.33 1.85-4.71 1.61-9.1 4.18-14.13 4.89 4.84 2.48 10.05-.42 15.1-.21-8.09 3.45-16.15 7.35-24.98 8.5-6.01 1.26-12.2 1.15-18.22 2.23-1.37.15-2.7.53-4.04.82-1.78-.24-3.54-.66-5.33-.76-1.74-1.35-3.53-3.87-6.03-3.05-2.72.76-5.74 1.16-7.96 3.05l1.05.05c12.21 5.97 26.28 5.74 39.43 3.82 5.56-.97 11.23-1.75 16.48-3.89 9.69-1.91 18.52-6.5 26.82-11.7.9.38 1.81.77 2.72 1.16 3.37-1.36 7.26-2.29 9.51-5.4 13.12-8.29 23.85-19.85 32.7-32.5 3.06-4.6 6.65-8.91 8.78-14.06 2.56-6.62 6.35-12.7 8.52-19.47 2.51-8.28 5.29-16.58 6.1-25.24-1.83 1.89-3.7 3.73-5.57 5.58m-10 21.01c-3.39 7.58-8.92 13.95-15.04 19.46 3.48-2.23 6.79-4.8 9.35-8.07 3.19-4.07 6.68-8.19 7.64-13.44 1.69-4.42 2.02-9.15 1.72-13.84-1.1 5.32-1.43 10.86-3.67 15.89m-48.41 12.57c2 2.28 6.91.93 6.63-2.38.15-3.98-4.7-4.32-7.57-4.82-.42 2.38-1.27 5.4.94 7.2m-28.87 7.27c-5.99 3.87-13.37 2.82-19.99 4.58 4.76.86 9.52 1.74 14.23 2.85 5.16 1.26 10.96.95 15.67-1.6 4.68-4.42 3.73-11.67 2.13-17.28-3.71 4.13-6.85 9.02-12.04 11.45m51.11 13.31c4.57-.98 7.75-4.51 10.71-7.86-5.16-.66-9.5 3.04-10.71 7.86m-26.61 3.33c5.54.13 13.27-2.65 12.09-9.57-4.3 2.84-7.6 6.95-12.09 9.57m-182.12-7.25c2.09 4.22 6.32 8 11.37 6.96-3.77-2.35-7.41-4.92-11.37-6.96m119.15 9.48c-.06 1.33 1.9 1.01 2.7 1.58 5.65 1.87 13.16 3 17.31-2.39-3.07-.76-6.12-1.63-9.25-2.08-3.81-.52-7.54.99-10.76 2.89m34.51 6.03c4.68 1.79 11.99 1.64 13.58-4.2-4.57 1.23-9.31 2.11-13.58 4.2m-135.77-3.43c2.27 3.57 6.23 5.88 10.53 4.79-3.35-1.92-6.96-3.34-10.53-4.79m147.12 10.61c2.89 3.62 7.64 6.28 12.33 4.71 5.33-2.07 8.74-6.93 12.95-10.54-8.6 1.28-16.55 5.33-25.28 5.83m-118.42.15c2.83 7.42 12.18 11.24 19.31 7.59-6.68-1.91-12.82-5.19-19.31-7.59m89.47 4.01c4.73 4.14 14.16 6.51 18.03.07-5.84-2.2-12.17-2.21-18.03-.07m-106.54-1.26c2.38 4.52 7.53 7.08 12.57 6.17-.14-.34-.42-1.02-.56-1.37-3.88-1.87-8.09-2.98-12.01-4.8m61.15 7.87c2.94 3.5 7.86 4.38 12.11 3.19-3.67-2.13-8.08-2.14-12.11-3.19m-17.13 3.85c4.78 2.68 11.77 5.1 16.55 1.34-5.54-.2-11.06-.61-16.55-1.34m41.3 2.9c7.83 6.13 20.02 5.75 27.17-1.29-9.12-.91-18.07 1.56-27.17 1.29m-66.01.54c2.3 2.69 5.85 3.39 9.22 3.21.22-.39.66-1.17.88-1.56-3.4-.38-6.75-.99-10.1-1.65m24.46 8.12c4.79 4.05 11.42 2.29 16.71 5.05 5.08 2.3 10.75 2.87 16.27 2.77-3.93-1.79-8.3-1.84-12.41-2.89-2.92-.66-5.2-2.76-7.96-3.79-4.18-.56-8.42-.7-12.61-1.14z" fill="#0b1c0e"/><path d="m223.91 14.55c4.11-.97 8.41-.74 12.61-1.06.01 1.58.04 3.16.06 4.74-6.17.32-12.26 1.61-18.46 1.63.21-.96.41-1.93.62-2.89 1.76-.72 3.46-1.58 5.17-2.42z" fill="#cdde6b"/><path d="m236.52 13.49c10.1.03 21.09.34 29.75 6.21 3.31 2.13 5.95 5.1 8.27 8.25-1 1.21-2 2.43-3 3.64-3.56-.07-7.12-.05-10.66.22 6.51 13.2 13.08 27.14 12.95 42.19-.02 14.73-.93 29.46-2.35 44.12-.48 5.74-3.05 11.09-3.3 16.86-.7 9.99.04 20.03-.95 30-.89 8.33-1.07 16.79-3.23 24.92-1.97 7.42-2.36 15.16-4.53 22.54-3.05 10.91-4.44 22.24-8.05 32.99-1.34 4.46-4.99 7.6-8.82 9.96.72-3.25 1.15-6.57 2.15-9.76 8.2-9.57 8.7-23.09 8.42-35.09.11-7.47 1.98-14.81 1.47-22.3 1.41-.67 3.01-1.51 3.15-3.27.63-5.13-.8-10.22-1.2-15.32-.71 5.08-.12 10.46-2.11 15.29-1.13-1.74-2.25-3.49-3.36-5.23 1.99-6.37 1.82-13.12 2.85-19.66 2.39-21.72 6.96-43.15 8.63-64.95.89-5.24 3.45-10.2 2.74-15.66-.01-1.53-.01-3.06-.03-4.58.27 1.46.63 2.9.99 4.35 2.86-6.97.38-14.39-.77-21.43-.28 1.79-.57 3.57-.77 5.37-.64-1.23-1.34-2.42-2.04-3.61-1.97 5.69-.29 11.86-1.55 17.71.51-7.46.07-15.01-1.57-22.31-.29.5-.87 1.52-1.16 2.02-2.2-8.96-5.86-18.14-13.51-23.85-7.78-7.05-19.49-6.45-28.78-3.06-4.24 1.64-8.56 3.04-12.9 4.36-8.52 4.27-16.71 9.23-24.13 15.23-.08-.53-.25-1.59-.33-2.12 2.66-1.95 5.15-4.12 7.3-6.62-5.99 1.51-10.56 5.86-16.09 8.35 6.51-5.5 13.39-10.61 20.7-15 6.11-2.08 11.91-4.94 17.92-7.28.53 3.17 4.85 1.38 3.24-1.31.78-.59 1.57-1.18 2.35-1.77 5.89-1.36 11.69-3.45 17.79-3.62 6.54-.45 12.91 1.63 19.44 1.51-4.88-1.45-9.77-3.01-14.86-3.55-.02-1.58-.05-3.16-.06-4.74m-36.49 19.77c-1.44 3.05 3.33.01 0 0z" fill="#a2ce31"/><path d="m201.15 20.97c7.19-3.25 14.85-5.81 22.76-6.42-1.71.84-3.41 1.7-5.17 2.42-3.99 1.18-7.04 4.01-10.11 6.68-2.87 1.1-5.74 2.23-8.43 3.73.31-2.13.62-4.27.95-6.41z" fill="#ecf8a3"/><path d="m6.37 133.69c-.91-4.8 3.02-9.05 7.64-9.63.84-.56 4.2.65 2.09 1.61-4.24 1.11-7.83 4.08-9.73 8.02z" fill="#ecf8a3"/><path d="m208.63 23.65c3.07-2.67 6.12-5.5 10.11-6.68-.21.96-.41 1.93-.62 2.89 6.2-.02 12.29-1.31 18.46-1.63 5.09.54 9.98 2.1 14.86 3.55-6.53.12-12.9-1.96-19.44-1.51-6.1.17-11.9 2.26-17.79 3.62-1.86-.06-3.72-.19-5.58-.24z" fill="#e5f285"/><path d="m160.67 48.69c12.26-10.92 25.93-20.14 40.48-27.72-.33 2.14-.64 4.28-.95 6.41-3.35 2.03-6.37 4.53-9.5 6.87-7.31 4.39-14.19 9.5-20.7 15-2.96 2.52-5.95 5.01-8.87 7.58-6.93 5.82-13.6 11.96-20.13 18.23-3.73 4.36-6.94 9.15-10.65 13.54.32-1.41.6-2.83.88-4.25-.48-.47-1.45-1.39-1.93-1.86 7.79-9.86 15.85-19.6 25.21-28.05 2.25-1.7 4.19-3.75 6.16-5.75z" fill="#fafcd2"/><path d="m200.2 27.38c2.69-1.5 5.56-2.63 8.43-3.73 1.86.05 3.72.18 5.58.24-.78.59-1.57 1.18-2.35 1.77-1.1.4-2.17.84-3.24 1.31-6.01 2.34-11.81 5.2-17.92 7.28 3.13-2.34 6.15-4.84 9.5-6.87z" fill="#d3ec77"/><path d="m277.08 23.73c4.59 2.66 8.23 6.58 12.32 9.9 2.2 1.79 3.75 4.54 3.12 7.46-.56 3.79-.07 7.56.7 11.27-.8 3.44-2.04 7.01-1.09 10.56.56 1.68 2.66 1.85 3.99 2.67-1.02.03-2.04.07-3.06.12.39 5.41.99 10.93-.38 16.26-.8 2.71-.08 5.47.07 8.2-.51 4.68.13 9.35.97 13.95-1.87-1.47-3.77-2.9-5.71-4.26-.64 3.91-.21 7.94 1.55 11.52 1.49 3.73 4.26 7.45 3.62 11.63-3.19 5.93-2.53 12.83-1.58 19.24.38-1.16.76-2.32 1.1-3.49.24 4.48-.77 8.89-1.74 13.23-1.52 6.73-7.22 11.84-7.67 18.9-.56 8.06-.88 16.51 2.23 24.13-.85 4.94-2.31 9.87-1.93 14.96.36 4.36.55 8.75-.23 13.09.09-2.64-.11-5.28-.37-7.89-2.28 4.56-3.91 9.61-3.03 14.76-1.89 5.4-3.7 10.96-3.25 16.79-2.85 2.61-5.88 5.36-7.03 9.18-1.27 3.2-.45 6.65.24 9.88-2.42 2.32-5.01 4.65-6.4 7.77-1.37 2.94-1.25 6.25-1.37 9.42-1.19 1.09-2.37 2.2-3.6 3.24-.7.19-2.08.57-2.77.77 1.89-3.48 3.47-7.14 4.05-11.08-3.64 1.46-7.03 3.45-10.05 5.94-2.08 1.75-4.97 1.32-7.48 1.76 7.03-8.67 13.29-18.05 18.27-28.05 3.66-9.52 7.82-18.94 9.93-28.96 4.17-17.55 4.34-35.68 5.93-53.57.77-9.87 1.21-19.77 2.02-29.64 2.19-.07 4.39-.15 6.58-.24.1-.31.3-.93.4-1.24-.87-.47-1.73-.93-2.59-1.4-.07.54-.22 1.62-.3 2.16-.99.02-2.98.05-3.97.07 1.28-14.26 3.18-28.46 4.42-42.73.66-10.01 1.26-20.03 1.96-30.05.69-9.69-.51-19.36-1.69-28.97-.72-6.16-3.5-11.76-6.18-17.26z" fill="#3e6d24"/><path d="m208.62 26.97c1.07-.47 2.14-.91 3.24-1.31 1.61 2.69-2.71 4.48-3.24 1.31z" fill="#6e9e1c"/><path d="m216.15 30.05c9.29-3.39 21-3.99 28.78 3.06 7.65 5.71 11.31 14.89 13.51 23.85.75 6.44.58 13.01-.15 19.44-2.25 5.43-5.43 10.57-6.37 16.5 3.58-2.93 7.8-6.02 8.64-10.89 1.59-.87 3.18-1.73 4.78-2.57.71 5.46-1.85 10.42-2.74 15.66-1.67 21.8-6.24 43.23-8.63 64.95-1.03 6.54-.86 13.29-2.85 19.66-1.13 2.89-1.13 6.44 1.62 8.43l1.9.1c.51 7.49-1.36 14.83-1.47 22.3-.62 5.72-2.44 11.2-3.84 16.76-1.68 6.07-2.68 12.32-4.58 18.33-1 3.19-1.43 6.51-2.15 9.76-.25.8-.5 1.6-.77 2.4-5.11 10.23-12.85 19.02-21.73 26.14-7.59 6.4-16.11 11.68-25.05 15.96-2.98 1.02-6.02 2.8-9.28 2.17 1.08-.45 1.69-1.2 1.83-2.26-1.09-.61-2.17.51-3.15.87-3.2.65-6.51 1-9.55 2.29-1.74.7-2.56 2.56-4.09 3.57-1.61.68-3.32 1.07-5.03 1.42-10.9.91-21.86.76-32.79.78-1.4-6.9-3-13.79-2.88-20.88-2.3 5.73-4.42 11.56-5.81 17.59-12.27-2.31-23.14-8.86-32.72-16.6-.57 1.15-1.13 2.31-1.68 3.47-8.83-6.62-13.71-17.07-16.73-27.4-1.06-3.3-1.65-6.73-1.81-10.19 1.36.78 2.73 1.54 4.12 2.27-.02-1.71-.05-3.43-.09-5.14.27-.51.81-1.51 1.08-2.01-.79.72-1.59 1.45-2.39 2.18-1.29-3.27-2.58-6.55-3.5-9.95.44-.13 1.31-.39 1.75-.53l1.12 2.56c.43-.36 1.3-1.1 1.74-1.46-1.42-2.64-3.25-5.02-5.48-7.02-.75-14.83 2.46-29.54 7.13-43.53 2.17-3.57 4.79-6.9 6.42-10.78.98-1.69-.09-3.55-.43-5.26-.15-.49-.45-1.49-.6-1.98-1.98 1.98-3.96 3.97-5.77 6.11-.39-5.11 2.01-9.76 3.03-14.65.17-.23.34-.45.51-.66 3.51-.8 4.71-4.54 6.85-6.99 4.61-5.74 9.02-11.64 13.77-17.26 7.35-7.43 13.72-15.75 20.01-24.07 7.11-8.3 13.11-17.47 19.83-26.07 3.1-3.6 5.82-7.51 8.7-11.28 9.19-10.61 18.43-21.38 29.96-29.56 7.42-6 15.61-10.96 24.13-15.23 4.34-1.32 8.66-2.72 12.9-4.36m-15.67 9.71c.62.44 1.84 1.33 2.46 1.77 3.27-1.89 7.03-3.32 9.32-6.49-4.3.41-8.21 2.38-11.78 4.72m-18.73 14.42c5.41-1.19 10.54-4.39 14.16-8.53-5.34 1.57-10.08 4.8-14.16 8.53m70.28-6.82c-1.61 2.95 3.33.21 0 0m-2.6 20.74c.06 3.34 3.01-1.47 0 0m-53.08 6.79c.02 3.34 3.03-1.44 0 0m-11.22 4.39c-.52 1.63.04 2.17 1.67 1.63.51-1.63-.05-2.17-1.67-1.63m-10.12.85c-.46 1.45-.01 1.92 1.37 1.42.46-1.45 0-1.92-1.37-1.42m-27.44 8.55c-.55 1.37-1.09 2.74-1.63 4.11 1.14-.08 2.28-.15 3.42-.22-.01-1.36-.02-2.72-.02-4.08-.45.05-1.33.14-1.77.19m50.88 3.47c.43.44 1.29 1.31 1.71 1.75 2.45.18 3.15-2.34 3.34-4.28-2.36-1.15-4.32.17-5.05 2.53m-31.22 1.08c-.55 1.63-.01 2.18 1.63 1.66.54-1.63 0-2.18-1.63-1.66m-15.31.97c-.52 1.63.04 2.2 1.66 1.73.51-1.62-.04-2.2-1.66-1.73m76.43 6.78c.3 3.32 2.91-1.68 0 0m-8.34 4.08c-1.59 2.96 3.33.21 0 0m36.63 5.54c-1.09 4.82-2.31 9.76-1.63 14.73 2.31-4.51 2.87-9.82 1.63-14.73m-95.52 10.22c2.42.35 4.1-.89 3.69-3.42-2.22-.26-3.48 1.38-3.69 3.42m-7.36-.67c-.41 1.46-.91 2.91-1.21 4.4 1.51.56 2.77-.45 3.83-1.4-.28-.65-.85-1.97-1.13-2.62-.37-.1-1.12-.28-1.49-.38m-29.5 4.08c.51.5.51.5 0 0m20.02 14.95c-7.31 2.59-14.41 5.94-20.92 10.19-3.66 2.29-6.5 5.58-9.82 8.31-7.17 6.03-11.87 14.35-15.94 22.65-3.6 10.46-6.54 21.48-5.67 32.64.67 9.27 3.15 18.54 7.32 26.82 2.69 7.86 6.17 15.88 12.79 21.24 4.51 3.49 8.97 7.63 14.74 8.75l-.95.5c3.44.84 7.58 3.35 10.83.81 9.71 3.33 20.35 3.05 30.29.89 8.78-1.84 16.71-6.19 24.46-10.54 7.57-4.56 13.17-11.6 18.53-18.48 10.33-13.77 13.25-31.97 10.78-48.74-1.21 1.1-2.29 2.44-2.46 4.14 1.79-13.42-1.17-27.25-7.75-39.03-5.59-8.55-12.49-17.11-22.57-20.4-14.12-4.38-29.52-3.77-43.66.25m-41.07 6.8 1.65-.83c-3.18 3.83-6.25 7.89-7.8 12.69 5.03-.44 8.57-4.48 11.8-7.94 2.92-3.54 6.62-6.94 7.19-11.75-1.61-.01-3.19.17-4.73.55-.58-.26-1.73-.78-2.3-1.04-2.85 2.02-5.03 4.88-5.81 8.32m115.18.02c.12 3.33 2.99-1.52 0 0m6.7 4.76c.19.53.55 1.58.74 2.11-.21.59-.63 1.77-.83 2.36.91.24 1.84.43 2.78.56.58-.9 1.13-1.81 1.64-2.75-.28-.69-.84-2.07-1.12-2.77-1.07.16-2.14.32-3.21.49m13.93 10.16c-.79 2.77-.45 5.7-.5 8.54 1.84-5.26 3.08-10.69 4.45-16.08-1.2 2.58-2.89 4.91-3.95 7.54m8.76 3.07c-.02 2.09-.86 4.62.85 6.29 2.23-4.66 2.4-9.98 1.41-14.98-2.15 2.37-1.84 5.74-2.26 8.69m.41 35.15c.14 3.33 2.98-1.55 0 0m-11.1 5.3c-1.16 2.16-1.19 5.03.57 6.89 1.39 1.51 4.5 1.99 5.52-.2 2.49-3.6-.5-7.7-2.01-11.03-1.57 1.21-3.51 2.28-4.08 4.34m-11.48 28.08c-.3.37-.89 1.12-1.18 1.49.52.64 1.04 1.28 1.56 1.93 1.6-.44 1.66-1.93 1.65-3.31-.51-.03-1.52-.08-2.03-.11m-147.64 1.93c-1.48 3.02 3.33.08 0 0m9.82 9.07c-.28 2.41 1.81 3.61 3.54 4.73.29-2.38-.61-5.14-3.54-4.73m125.97 18.47c-3.36.61-3.6 4.95-3.29 7.68 1.34 2.53 3.93-.31 5.17-1.5l-.24-.71c6.15-5.42 11.96-12.15 13.49-20.43-5.81 4.16-10.53 9.56-15.13 14.96m-130.44 1.44c-.4 4.46 1.34 12.01 7.14 11.15.34-3.66 1.1-8.23-2.27-10.79-1.36-1.42-3.24-.87-4.87-.36m35.83 13.71c.09.64.28 1.93.37 2.57.93-.58 1.83-1.24 2.4-2.19-.69-.1-2.07-.28-2.77-.38m94.4 3.3c-1.16 2.96 2.91 5.41 5.15 3.32 2.25-1.09 1.12-3.45.6-5.23-2.08-.32-5.07-.77-5.75 1.91m-26.69 5.07c6.26.88 12.25-1.86 17.3-5.32-5.94 1.08-11.72 3.05-17.3 5.32m-87.64-4.21c-.48 1.65.08 2.18 1.7 1.6.47-1.66-.09-2.19-1.7-1.6m47.55 2.26c-.02.52-.06 1.55-.08 2.07.96-.02 1.93-.03 2.89-.05-.03-.53-.11-1.58-.15-2.11-.89.02-1.77.05-2.66.09m-25.68 9.66c-1.67 2.92 3.31.31 0 0m41.69 7.89c4.25-1.28 7.76-4.12 11.63-6.2-4.37.17-9.46 2.21-11.63 6.2m-12.59-2c-.56 1.62-.03 2.18 1.61 1.66.56-1.63.02-2.18-1.61-1.66m-9.1 2.4c-1.51 2.99 3.35.11 0 0m18.07 2.52c-.56 1.61-.01 2.16 1.64 1.65.55-1.62 0-2.17-1.64-1.65m-4.67 1.12c-1.24 1.51 1.44 2.95 2.4 1.51 1.25-1.52-1.46-2.99-2.4-1.51z" fill="#fbdf46"/><path d="m274.54 27.95c5.14 7 7.96 15.46 8.63 24.08.91 12.66.15 25.39-1.21 37.99-3.45 22.87-6.63 45.84-7.5 68.97-.12 1.91-.15 3.84-.48 5.73-1.32 5.27-1.5 10.7-2.18 16.06-1.34 5.97-1.93 12.13-4.15 17.87-1.43 3.63-.52 7.59-.76 11.38-.04 7.48-2.78 14.55-3.9 21.88 1.72-3.54 2.85-7.32 4.5-10.88l1.56-.93c-2.12 11.4-5.98 22.51-10.9 33-3.7 7.94-9 14.98-14.2 21.98l-.14-1.07c.17-2.2.98-4.26 1.78-6.29-1.4-1-2.79-1.98-4.19-2.96.07-2.33.16-4.66.43-6.97.27-.8.52-1.6.77-2.4 3.83-2.36 7.48-5.5 8.82-9.96 3.61-10.75 5-22.08 8.05-32.99 2.17-7.38 2.56-15.12 4.53-22.54 2.16-8.13 2.34-16.59 3.23-24.92.99-9.97.25-20.01.95-30 .25-5.77 2.82-11.12 3.3-16.86 1.42-14.66 2.33-29.39 2.35-44.12.13-15.05-6.44-28.99-12.95-42.19 3.54-.27 7.1-.29 10.66-.22 1-1.21 2-2.43 3-3.64z" fill="#7bb726"/><path d="m292.7 28.81c4.85 4.58 9.19 9.84 11.79 16.04 2.12 5.09 4.94 9.89 6.5 15.21 2.55 8.43 4.23 17.09 5.5 25.79 1.02 7.9 3 15.64 3.84 23.57-.7-.18-2.11-.53-2.81-.71-1.09-6.43-1.67-12.96-2.77-19.39-.53 5.76-.53 11.54-.3 17.32-1.22-4.58-2.73-9.09-3.76-13.72-.68-2.42.88-4.63 1.34-6.94 1.43-5.34-.26-10.82-2.08-15.84-1.57-4.59-3.43-9.08-4.85-13.72l-.17-.63c-.53-2.33-.95-4.68-1.63-6.97-2.78-7.02-6.35-13.77-10.6-20.01z" fill="#cee48d"/><path d="m200.03 33.26c3.33.01-1.44 3.05 0 0z" fill="#66900d"/><path d="m200.48 39.76c3.57-2.34 7.48-4.31 11.78-4.72-2.29 3.17-6.05 4.6-9.32 6.49-.62-.44-1.84-1.33-2.46-1.77z" fill="#ccc929"/><path d="m170 49.25c5.53-2.49 10.1-6.84 16.09-8.35-2.15 2.5-4.64 4.67-7.3 6.62.08.53.25 1.59.33 2.12-11.53 8.18-20.77 18.95-29.96 29.56-2.88 3.77-5.6 7.68-8.7 11.28-6.72 8.6-12.72 17.77-19.83 26.07-6.29 8.32-12.66 16.64-20.01 24.07-4.75 5.62-9.16 11.52-13.77 17.26-2.14 2.45-3.34 6.19-6.85 6.99 1.03-1.87 1.99-3.77 3-5.64 6.45-8.64 12.57-17.53 19.14-26.09 4.45-6.49 8.91-12.98 13.83-19.13 7.04-10.85 15.25-20.88 22.4-31.65 6.52-9.43 15.73-16.55 22.76-25.53 2.92-2.57 5.91-5.06 8.87-7.58z" fill="#8ac328"/><path d="m181.75 54.18c4.08-3.73 8.82-6.96 14.16-8.53-3.62 4.14-8.75 7.34-14.16 8.53z" fill="#acb921"/><path d="m296.5 45.09c2.45 2.72 4.17 6.11 7.29 8.18-.12-1.11-.37-3.34-.49-4.45.68 2.29 1.1 4.64 1.63 6.97-1.8-.67-3.76-1.15-5.2-2.48-2.01-2.27-2.56-5.37-3.23-8.22z" fill="#567b38"/><path d="m252.03 47.36c3.33.21-1.61 2.95 0 0z" fill="#b8ae15"/><path d="m292.13 62.92c-.95-3.55.29-7.12 1.09-10.56 2.41 3.92 3.88 8.63 2.9 13.23-1.33-.82-3.43-.99-3.99-2.67z" fill="#6b9b2c"/><path d="m258.44 56.96c.29-.5.87-1.52 1.16-2.02 1.64 7.3 2.08 14.85 1.57 22.31-.17 1.59-.37 3.17-.61 4.76-.84 4.87-5.06 7.96-8.64 10.89.94-5.93 4.12-11.07 6.37-16.5.73-6.43.9-13 .15-19.44z" fill="#76aa15"/><path d="m141 75.06c6.53-6.27 13.2-12.41 20.13-18.23-7.03 8.98-16.24 16.1-22.76 25.53-7.15 10.77-15.36 20.8-22.4 31.65-4.92 6.15-9.38 12.64-13.83 19.13-6.57 8.56-12.69 17.45-19.14 26.09 7.5-14.11 16.81-27.17 25.93-40.26 2.94-4.07 6.06-8.02 8.55-12.39 3.7-6.4 8.75-11.86 12.87-17.98 3.71-4.39 6.92-9.18 10.65-13.54z" fill="#cee961"/><path d="m303.13 70.03c.27-4.58 1.21-9.09 1.97-13.61 1.42 4.64 3.28 9.13 4.85 13.72-1.08 2.17-1.27 5.61-3.93 6.45-2.41-1.21-3.06-4.1-2.89-6.56z" fill="#649328"/><path d="m264.76 63.15c.2-1.8.49-3.58.77-5.37 1.15 7.04 3.63 14.46.77 21.43-.36-1.45-.72-2.89-.99-4.35-.15-3.91-.34-7.81-.55-11.71z" fill="#77a91c"/><path d="m261.17 77.25c1.26-5.85-.42-12.02 1.55-17.71.7 1.19 1.4 2.38 2.04 3.61.21 3.9.4 7.8.55 11.71.02 1.52.02 3.05.03 4.58-1.6.84-3.19 1.7-4.78 2.57.24-1.59.44-3.17.61-4.76z" fill="#e1df42"/><path d="m249.43 68.1c3.01-1.47.06 3.34 0 0z" fill="#d1c126"/><path d="m196.35 74.89c3.03-1.44.02 3.34 0 0z" fill="#cfbd26"/><path d="m299.64 74.63c1.68 5.82 4.71 11.33 5.16 17.45.39 1.97-2.26 3.28-3.53 1.65-2.35-1.88-1.72-5.14-2.1-7.76-1.16-3.69-.59-7.7.47-11.34z" fill="#b1cf4b"/><path d="m185.13 79.28c1.62-.54 2.18 0 1.67 1.63-1.63.54-2.19 0-1.67-1.63z" fill="#d3bb29"/><path d="m175.01 80.13c1.37-.5 1.83-.03 1.37 1.42-1.38.5-1.83.03-1.37-1.42z" fill="#cfbb2b"/><path d="m114.82 102.79c4.34-7.1 9.74-13.46 14.48-20.3.48.47 1.45 1.39 1.93 1.86-.28 1.42-.56 2.84-.88 4.25-4.12 6.12-9.17 11.58-12.87 17.98-2.49 4.37-5.61 8.32-8.55 12.39-9.12 13.09-18.43 26.15-25.93 40.26-1.01 1.87-1.97 3.77-3 5.64-.17.21-.34.43-.51.66-3.45 3.49-3.9 8.58-6.09 12.78-2.03 3.98-3.96 8.03-5.4 12.27-3.82 10.02-6.65 20.37-9.04 30.82-.14.62-.43 1.86-.57 2.49-.62.89-1.25 1.78-1.89 2.66-.31-.3-.94-.88-1.26-1.18 2.19-18.38 7.76-36.37 16.32-52.79 2.96-5.42 4.92-11.37 8.56-16.42 4.53-8.02 9.6-15.71 14.67-23.4 5.74-10.6 13.36-19.97 20.03-29.97z" fill="#f6fae7"/><path d="m188.41 192.29c1.78-2.11 3.97.1 3.26 2.36-1.83.47-3.9-.08-3.26-2.36z" fill="#f6fae7"/><path d="m147.57 88.68c.44-.05 1.32-.14 1.77-.19 0 1.36.01 2.72.02 4.08-1.14.07-2.28.14-3.42.22.54-1.37 1.08-2.74 1.63-4.11z" fill="#bfc723"/><path d="m42.11 99.7c1.91-4.47 4.57-9.73 9.82-10.75 1.9-.82 3.58.57 5.19 1.36-3.97 2.43-9.23 3.01-11.83 7.32-.45.58-.9 1.17-1.34 1.76-.46.08-1.38.23-1.84.31z" fill="#effec7"/><path d="m271.8 180.78c.68-5.36.86-10.79 2.18-16.06-.17 4.1-.2 8.2-.14 12.3.16 14.47-1.16 29.05-4.79 43.08l-1.56.93c3.42-13.15 2.75-26.85 4.31-40.25z" fill="#effec7"/><path d="m268.4 281.01c-1.36-11.04 14.38-17.64 22.41-10.75-6.23-.03-13.1-.9-18.56 2.84-2.76 1.45-4.04 4.63-3.52 7.64z" fill="#effec7"/><path d="m198.45 92.15c.73-2.36 2.69-3.68 5.05-2.53-.19 1.94-.89 4.46-3.34 4.28-.42-.44-1.28-1.31-1.71-1.75z" fill="#151911"/><path d="m57.12 90.31c.99 1.56 1.03 3.34.18 4.98-3.09-.24-6.6-.56-8.91 1.97-.77.09-2.32.28-3.1.37 2.6-4.31 7.86-4.89 11.83-7.32z" fill="#aad147"/><path d="m293.72 104.12c-.84-4.6-1.48-9.27-.97-13.95.28 4.93 1.3 9.77 1.68 14.68-.02.81-.07 2.43-.1 3.24-.22-1.32-.42-2.65-.61-3.97z" fill="#cadf8a"/><path d="m333.96 276.82c1.87-1.85 3.74-3.69 5.57-5.58-.81 8.66-3.59 16.96-6.1 25.24-2.17 6.77-5.96 12.85-8.52 19.47-2.13 5.15-5.72 9.46-8.78 14.06-8.85 12.65-19.58 24.21-32.7 32.5-.45-.01-1.36-.04-1.82-.05 3.07-7.76 10.52-11.97 15.96-17.83 2.68-2.68 4.69-5.97 7.54-8.49 4.34-2.74 7.17-7.05 9.65-11.43 2.64-4.04 4.46-8.52 6.27-12.97 5.54-8.42 9.46-17.83 12.14-27.52.7-2.41.74-4.93.79-7.4z" fill="#cadf8a"/><path d="m167.23 93.23c1.63-.52 2.17.03 1.63 1.66-1.64.52-2.18-.03-1.63-1.66z" fill="#c2bc1e"/><path d="m151.92 94.2c1.62-.47 2.17.11 1.66 1.73-1.62.47-2.18-.1-1.66-1.73z" fill="#bdb71f"/><path d="m45.29 97.63c.78-.09 2.33-.28 3.1-.37-1.98 3.1-3.58 6.41-4.78 9.89-2.16-2.04-2.78-4.7-1.5-7.45.46-.08 1.38-.23 1.84-.31.44-.59.89-1.18 1.34-1.76z" fill="#93ba56"/><path d="m288.01 99.86c1.94 1.36 3.84 2.79 5.71 4.26.19 1.32.39 2.65.61 3.97.03-.81.08-2.43.1-3.24 1.57-1.19 3.46-1.57 5.39-1.62.92 5.06 4.26 11.53-.26 15.73-.79-.26-2.38-.78-3.18-1.04.09-2.18-.13-4.35-.58-6.47-2.08-.01-4.16-.04-6.24-.07-1.76-3.58-2.19-7.61-1.55-11.52z" fill="#152b12"/><path d="m228.35 100.98c2.91-1.68.3 3.32 0 0z" fill="#cab61d"/><path d="m299.32 100.72c5.24 3.15 6.52 9.74 6.52 15.38-.26 2.86-1.12 7.99-5.16 6.56-.37-1.24-.74-2.47-1.12-3.7 4.52-4.2 1.18-10.67.26-15.73-.12-.63-.37-1.88-.5-2.51z" fill="#cfe58c"/><path d="m220.01 105.06c3.33.21-1.59 2.96 0 0z" fill="#b9a518"/><path d="m11.98 118.73c-.67-5.23 4.24-8.65 8.86-9.28 6.57-1 14.35-.94 19.52 3.87-1.64.78-3.39 1.69-5.27 1.17-5.26-.84-10.65-1.88-15.97-.89-2.93.76-4.91 3.26-7.14 5.13z" fill="#f9fddd"/><path d="m317.52 108.71c.7.18 2.11.53 2.81.71 3.33 17.18 5.22 34.64 9.58 51.61 2.56 12.65 5.89 25.14 7.99 37.88-1.67-1.83-3.34-3.65-5.21-5.27-2.23-13.12-5.97-25.94-8.11-39.09-.85-4.59-2.2-9.07-3.16-13.65-1.37-7.08-4.16-13.8-5.5-20.88-.46-1.48.53-2.83.91-4.2.95-2.25.59-4.74.69-7.11z" fill="#d3e98e"/><path d="m256.64 110.6c1.24 4.91.68 10.22-1.63 14.73-.68-4.97.54-9.91 1.63-14.73z" fill="#d0c934"/><path d="m11.98 118.73c2.23-1.87 4.21-4.37 7.14-5.13 5.32-.99 10.71.05 15.97.89 1.88.52 3.63-.39 5.27-1.17l.83-.38.04 1.18c-.76 1.98-1.8 3.83-2.84 5.68-4.67 1.26-9.7.17-13.61-2.62-1.52-.66-3.3-2.89-4.94-1.4-.72 2.32-1.7 4.67-1.74 7.12 3.13 3.07 8.24 2.55 12.02 4.6-.42.04-1.25.13-1.66.18-.06.94-.1 1.89-.12 2.84 2.49.14 5.2.32 6.86-1.95l.03-.02c.36.36 1.09 1.08 1.45 1.44-.46 2.58-1.04 5.35-3.46 6.82-3.85.83-8.19.58-11.56-1.63-1.97-1.23-3.85-2.61-5.82-3.84-1.06 1.58-1.3 3.44-1.13 5.31-.27.55-.8 1.64-1.07 2.19.37.6 1.12 1.81 1.49 2.41 5.86.88 11.86 1.79 17.16 4.59-1.22 2.34-2.67 4.56-4.41 6.55-5.22.25-9.34-2.99-13.81-5.07-.14 2.28.27 4.53 1.52 6.47-3.7-.7-7.28-3.1-8.26-6.91-.45-2.79 1.78-4.87 3.84-6.32-1.77-2.17-3.46-4.41-4.8-6.87 1.9-3.94 5.49-6.91 9.73-8.02 2.11-.96-1.25-2.17-2.09-1.61-.83-1.72-1.49-3.5-2.03-5.33z" fill="#9ac836"/><path d="m41.23 114.12c3.25 2.66 4.77 7.04 2.84 10.96-.8-2.85-2.54-5.12-5.68-5.28 1.04-1.85 2.08-3.7 2.84-5.68z" fill="#5a8030"/><g fill="#12120c"><path d="m161.12 120.82c.21-2.04 1.47-3.68 3.69-3.42.41 2.53-1.27 3.77-3.69 3.42z"/><path d="m172.58 161.28c1.83-2.88 5.15-4.43 8.55-3.87 3.67.04 6.38 2.78 8.49 5.47-5.55-1.54-11.28-2.73-17.04-1.6z"/><path d="m122.01 238.54c1.47 1.19 2.91 2.43 4.25 3.78 1.97 2.33 4.73 3.69 7.49 4.88 7.19 3.44 15.09 5.04 22.95 6.07 2.47.39 4.92.93 7.37 1.47-12.57 1.94-25.61-1.47-36-8.7-1.94-2.56-3.82-5.19-6.06-7.5z"/><path d="m119.15 277.14c.7.1 2.08.28 2.77.38-.57.95-1.47 1.61-2.4 2.19-.09-.64-.28-1.93-.37-2.57z"/><path d="m146.77 283.56c.89-.04 1.77-.07 2.66-.09.04.53.12 1.58.15 2.11-.96.02-1.93.03-2.89.05.02-.52.06-1.55.08-2.07z"/></g><path d="m153.76 120.15c.37.1 1.12.28 1.49.38.28.65.85 1.97 1.13 2.62-1.06.95-2.32 1.96-3.83 1.4.3-1.49.8-2.94 1.21-4.4z" fill="#233f0a"/><path d="m254.48 184.94c1.99-4.83 1.4-10.21 2.11-15.29.4 5.1 1.83 10.19 1.2 15.32-.14 1.76-1.74 2.6-3.15 3.27l-1.9-.1c.58-1.07 1.2-2.12 1.74-3.2z" fill="#233f0a"/><path d="m253.17 210.54c.28 12-.22 25.52-8.42 35.09 1.9-6.01 2.9-12.26 4.58-18.33 1.4-5.56 3.22-11.04 3.84-16.76z" fill="#233f0a"/><path d="m124.26 124.23c.51.5.51.5 0 0z" fill="#bca70c"/><path d="m291.6 142.25c-.95-6.41-1.61-13.31 1.58-19.24.22 5.25.05 10.53-.48 15.75-.34 1.17-.72 2.33-1.1 3.49z" fill="#749e47"/><path d="m312.87 122.96c1.88 3.38 3.84 7.03 4.01 10.96.12 1.35-1.6 1.25-2.39 1.84-1.86-1.72-3.31-3.8-4.01-6.25 1.02 1.28 2.02 2.58 3.02 3.89-.48-3.45-1.22-6.95-.63-10.44z" fill="#8cb547"/><path d="m30.12 127.5c1.75-.01 3.42.6 5.08 1.07-1.66 2.27-4.37 2.09-6.86 1.95.02-.95.06-1.9.12-2.84.41-.05 1.24-.14 1.66-.18z" fill="#f1fdbf"/><path d="m36.68 129.99c2.82 2.61 5.24 6.08 3.84 10.11-2.05-1.85-4.45-3.3-7.3-3.29 2.42-1.47 3-4.24 3.46-6.82z" fill="#5a8332"/><path d="m301.1 133.27c3.48 2.54 4.85 6.81 6.31 10.66 1.48 4.63 3.2 9.25 3.79 14.1.28 1.68-1.43 3.91-3.26 3.21-3.07-2.03-2.88-6.03-3.3-9.26-.2-6.39-2.2-12.51-3.54-18.71z" fill="#daee8f"/><path d="m144.28 139.18c14.14-4.02 29.54-4.63 43.66-.25 10.08 3.29 16.98 11.85 22.57 20.4 6.58 11.78 9.54 25.61 7.75 39.03-2.77 23.77-16.28 46.5-36.94 58.94-6.02 4.31-13.31 6.02-20.39 7.67-8.49 1.74-17.36 1.9-25.86.15-7.16-1.69-14.62-3.27-20.45-8.07-6.09-4.82-11.05-10.85-15.37-17.26-4.17-8.28-6.65-17.55-7.32-26.82-.87-11.16 2.07-22.18 5.67-32.64 4.07-8.3 8.77-16.62 15.94-22.65 3.32-2.73 6.16-6.02 9.82-8.31 6.51-4.25 13.61-7.6 20.92-10.19m3.35 5.37c-9.05 2.15-16.95 7.36-24.6 12.43-1.94 1.17-3.62 2.68-5.24 4.24 5.7-2.28 12.34-1.92 17.55 1.42 2.58 3.3 4.98 7.04 5.41 11.3.72 5.09-1.54 10.18-4.77 13.97-4.86 4.61-11.88 4.45-18 3.12l-.35-.71-.59-.14c-2.1-2.32-4.71-4.35-5.81-7.38-2.43-5.7-.26-12.14 2.61-17.24-7.3 9.43-13.05 20.34-14.9 32.22-1.11 5.25-.69 10.64-.74 15.96.91 9.49 4.44 18.62 9.2 26.83l.58.15c7.7 10.68 20.39 16.98 33.16 19.15-6.77-1.96-13.76-3.97-19.44-8.31-3.26-2.53-5.01-6.46-8-9.2-1.57-2.06-2.95-4.24-4.43-6.36 2.02 1.56 4.01 3.14 5.97 4.8-.52-1.27-1.55-3.8-2.07-5.07 2.59 3.73 5.86 6.89 9.43 9.67 8.43 7.3 19.46 10.78 30.33 12.26 7.72 1.2 14.91-2.29 21.75-5.33-5.13.09-10.28-.13-15.39.31.09-.42.26-1.26.34-1.68 13.68-2.4 28.87-6.12 37.74-17.74-5.54 3.3-10.75 7.29-16.96 9.3-7.62 3.06-17.01 5.81-24.59 1.25 7.59 0 15.44-.43 22.44-3.67 6.62-3.45 12.88-7.54 18.97-11.86 1.94-1.35 3.41-3.21 4.75-5.13-4.84 1.05-8.23 5.11-12.66 7.12-5.16 2.41-9.98 5.91-15.7 6.8 2.15-1.66 4.31-3.31 6.49-4.93 2.01-1.58 4.69-1.8 6.84-3.13 4.73-2.85 9.26-6.04 13.67-9.37 2.76-2.08 5.19-4.65 6.64-7.82-2.93.93-5.32 2.89-7.66 4.81-3.57 2.95-7.54 5.38-11.65 7.51 6.45-6.25 13.36-12.03 19.88-18.2 1.63-1.46 1.91-3.66 2.12-5.72-2.96 1.99-5.84 4.21-7.8 7.25-.6.06-1.8.18-2.4.25 2.28-6.3 9.24-9.47 10.86-16.12-3.01 2.24-4.82 5.63-7.71 7.99 1.75-5.41 5.83-9.57 8.64-14.41-1.28-6.08-2.26-12.29-5-17.93-3.94-9.18-10.8-17.35-20.01-21.54-12.06-5.6-26.5-5.78-38.9-1.12m-32.93 26.84c4.35.13 7.72-3.03 9.36-6.81-4.52-.51-7.91 2.89-9.36 6.81m10.45-5.09c-3.26 2.71-2.24 8.83 1.83 10.23 3.51 1.54 7.94-1.71 7.38-5.53-.16-4.27-5.69-7.41-9.21-4.7m-7.41 12.05c1.17.31 2.4.1 3.6.09.12-1.4.71-3.88-1.41-3.97-2.51-1.03-3.36 2.2-2.19 3.88m14.95.42c-.1.48-.3 1.43-.4 1.91.67.06 2.02.18 2.69.23-.1-.62-.3-1.88-.39-2.51-.48.09-1.43.28-1.9.37z" fill="#0c180c"/><path d="m103.21 145.98c.78-3.44 2.96-6.3 5.81-8.32.57.26 1.72.78 2.3 1.04-2.31 2-4.36 4.25-6.46 6.45z" fill="#becf3c"/><path d="m104.86 145.15c2.1-2.2 4.15-4.45 6.46-6.45 1.54-.38 3.12-.56 4.73-.55-.57 4.81-4.27 8.21-7.19 11.75-3.23 3.46-6.77 7.5-11.8 7.94 1.55-4.8 4.62-8.86 7.8-12.69z" fill="#fcfba3"/><path d="m186.86 285.51c5.58-2.27 11.36-4.24 17.3-5.32-5.05 3.46-11.04 6.2-17.3 5.32z" fill="#fcfba3"/><path d="m321.42 140.9c.96 4.58 2.31 9.06 3.16 13.65-1.27 4.47-2.07 9.09-1.76 13.75-.99-4.12-2.28-8.16-3.26-12.28.42-5.06 1.01-10.11 1.86-15.12z" fill="#84ae2a"/><path d="m147.63 144.55c12.4-4.66 26.84-4.48 38.9 1.12 9.21 4.19 16.07 12.36 20.01 21.54-2.29 5-3.97 10.23-5.89 15.38-1.16 3.82-.5 7.92-1.47 11.78-1.09 3.24-2.99 6.13-4.73 9.05-.17.25-.52.75-.69 1-2.23-.36-4.48-.61-6.74-.43 7.19-1.49 11.46-9.02 10.73-16.02.22-8-7.03-14.66-14.74-15.15-5.81-.4-11.45 2.65-15.1 7.04-2.41 3.08-2.67 7.12-3 10.86-.27 2.41-.82 4.8-.85 7.23.98 5.12 4.96 9.02 9.56 11.12-2.03.17-4.07.26-6.11.34 1.38 1.14 2.74 2.29 4.11 3.44-7.96 5.75-18.7 5.82-27.86 3.34-7.21-2.5-14.02-7.69-16.81-14.99 2.26-1 4.54-2.03 6.5-3.57.13-1.43.22-2.86.31-4.29-3.03.3-6.06.69-9.1 1.03-1.97-.52-3.96-1.02-5.86-1.75-.21-.4-.62-1.19-.82-1.59 6.12 1.33 13.14 1.49 18-3.12 3.23-3.79 5.49-8.88 4.77-13.97-.43-4.26-2.83-8-5.41-11.3 5.8-.71 11.38-2.74 16.43-5.64 2.87-1.73 5.97-4.88 4.68-8.54-1.46-3.45-5.66-3.48-8.82-3.91m10.62.74c-.57 1.69-.07 2.29 1.51 1.78.56-1.69.06-2.29-1.51-1.78m1.92 6.03c-1.45.05-1.93 2.74-.29 2.89 1.45-.06 1.93-2.74.29-2.89m-7.01 5.36c-1.72.58-2.11 1.76-1.18 3.54 1.37.46 3.74.73 3.85-1.32.6-1.73-1.1-2.85-2.67-2.22m19.42 4.6c5.76-1.13 11.49.06 17.04 1.6-2.11-2.69-4.82-5.43-8.49-5.47-3.4-.56-6.72.99-8.55 3.87m-30.99 3.82c.4 2.56 3.26 1.48 5.03 1.52.02-1.44.05-2.88.06-4.31-2.08-.26-5.56-.3-5.09 2.79m-.13 29.5c-.39 1.51-.37 3.91 1.78 3.75 2.36.51 2.47-2.14 2.5-3.79-1.44-.35-3.08-1.44-4.28.04m12.23 2c-.51 1.32-1.79 2.85-.09 3.87 1.56.69 2.95-.42 4.18-1.23-.39-.64-1.17-1.9-1.57-2.53-.84-.04-1.68-.07-2.52-.11z" fill="#cf8e2e"/><path d="m123.03 156.98c7.65-5.07 15.55-10.28 24.6-12.43 3.16.43 7.36.46 8.82 3.91 1.29 3.66-1.81 6.81-4.68 8.54-5.05 2.9-10.63 4.93-16.43 5.64-5.21-3.34-11.85-3.7-17.55-1.42 1.62-1.56 3.3-3.07 5.24-4.24z" fill="#fdfeef"/><path d="m312.75 143.29c3.68 3.45 4.07 8.77 6.81 12.73.98 4.12 2.27 8.16 3.26 12.28.24 1.74.46 3.48.68 5.23-3.61-1.53-5.14-5.31-6.44-8.7-2.48-6.9-4.84-14.11-4.31-21.54z" fill="#588c28"/><path d="m158.25 145.29c1.57-.51 2.07.09 1.51 1.78-1.58.51-2.08-.09-1.51-1.78z" fill="#fde999"/><path d="m32.29 145.84c1.13 1.65 2.21 3.34 3.2 5.08-.53 1.25-1.05 2.5-1.56 3.75-1.82-1.23-3.85-2.08-6.05-2.28 1.74-1.99 3.19-4.21 4.41-6.55z" fill="#58872b"/><path d="m218.39 146c2.99-1.52.12 3.33 0 0z" fill="#c9b023"/><path d="m225.09 150.76c1.07-.17 2.14-.33 3.21-.49.28.7.84 2.08 1.12 2.77-.51.94-1.06 1.85-1.64 2.75-.94-.13-1.87-.32-2.78-.56.2-.59.62-1.77.83-2.36-.19-.53-.55-1.58-.74-2.11z" fill="#0c180f"/><path d="m167.91 179.86c3.65-4.39 9.29-7.44 15.1-7.04 7.71.49 14.96 7.15 14.74 15.15.73 7-3.54 14.53-10.73 16.02-5.34 1.73-11.41 1.58-16.08-1.83-3.34-2.97-5.7-6.91-6.03-11.44.33-3.74.59-7.78 3-10.86m2.28 4.99c4.21-.3 7.58-2.98 8.99-6.92-4.16-.02-8.4 2.54-8.99 6.92m10.91-5.93c-3.54 2.76-2.39 11.06 2.93 10.84 4.31.4 7.54-5.12 4.97-8.64-1.53-2.87-5.13-3.01-7.9-2.2m-6.57 8.78c-2.98.08-2.4 4.9.45 4.63 3.41.25 2.92-5.55-.45-4.63m13.88 4.59c-.64 2.28 1.43 2.83 3.26 2.36.71-2.26-1.48-4.47-3.26-2.36z" fill="#0c180f"/><path d="m160.17 151.32c1.64.15 1.16 2.83-.29 2.89-1.64-.15-1.16-2.84.29-2.89z" fill="#f8db76"/><path d="m239.02 160.92c1.06-2.63 2.75-4.96 3.95-7.54-1.37 5.39-2.61 10.82-4.45 16.08.05-2.84-.29-5.77.5-8.54z" fill="#2a5113"/><path d="m306.81 328.42c2.74-1.03 5.47-2.13 7.95-3.71-2.48 4.38-5.31 8.69-9.65 11.43.21-2.02.41-4.03.63-6.05.03-.73.25-1.48 1.07-1.67z" fill="#2a5113"/><path d="m324.58 154.55c2.14 13.15 5.88 25.97 8.11 39.09-2.42-1.95-4.28-4.49-5.87-7.13-1.95-3.94-1.47-8.47-1.6-12.72-.43-.07-1.29-.2-1.72-.26-.22-1.75-.44-3.49-.68-5.23-.31-4.66.49-9.28 1.76-13.75z" fill="#93b831"/><path d="m247.78 163.99c.42-2.95.11-6.32 2.26-8.69.99 5 .82 10.32-1.41 14.98-1.71-1.67-.87-4.2-.85-6.29z" fill="#fcf07f"/><path d="m153.16 156.68c1.57-.63 3.27.49 2.67 2.22-.11 2.05-2.48 1.78-3.85 1.32-.93-1.78-.54-2.96 1.18-3.54z" fill="#f9eec3"/><path d="m304.51 176.57c-3.53-4.71-4.66-11.57-1.67-16.82 1.42 6.97 3.43 14.02 8.07 19.61-2.17-.77-4.94-.78-6.4-2.79z" fill="#7aac34"/><path d="m141.59 165.1c-.47-3.09 3.01-3.05 5.09-2.79-.01 1.43-.04 2.87-.06 4.31-1.77-.04-4.63 1.04-5.03-1.52z" fill="#fcfaec"/><path d="m114.7 171.39c1.45-3.92 4.84-7.32 9.36-6.81-1.64 3.78-5.01 6.94-9.36 6.81z" fill="#f5fce7"/><path d="m73.4 178.31c2.19-4.2 2.64-9.29 6.09-12.78-1.02 4.89-3.42 9.54-3.03 14.65-2.81 4.12-6.01 8.11-7.31 13.04-.29-.66-.86-1.98-1.15-2.64 1.44-4.24 3.37-8.29 5.4-12.27z" fill="#edfd7d"/><path d="m125.15 166.3c3.52-2.71 9.05.43 9.21 4.7.56 3.82-3.87 7.07-7.38 5.53-4.07-1.4-5.09-7.52-1.83-10.23z" fill="#f9fcf8"/><path d="m206.54 167.21c2.74 5.64 3.72 11.85 5 17.93-2.81 4.84-6.89 9-8.64 14.41 2.89-2.36 4.7-5.75 7.71-7.99-1.62 6.65-8.58 9.82-10.86 16.12.6-.07 1.8-.19 2.4-.25 1.96-3.04 4.84-5.26 7.8-7.25-.21 2.06-.49 4.26-2.12 5.72-6.52 6.17-13.43 11.95-19.88 18.2 4.11-2.13 8.08-4.56 11.65-7.51 2.34-1.92 4.73-3.88 7.66-4.81-1.45 3.17-3.88 5.74-6.64 7.82-4.41 3.33-8.94 6.52-13.67 9.37-2.15 1.33-4.83 1.55-6.84 3.13-2.18 1.62-4.34 3.27-6.49 4.93 5.72-.89 10.54-4.39 15.7-6.8 4.43-2.01 7.82-6.07 12.66-7.12-1.34 1.92-2.81 3.78-4.75 5.13-6.09 4.32-12.35 8.41-18.97 11.86-7 3.24-14.85 3.67-22.44 3.67 7.58 4.56 16.97 1.81 24.59-1.25 6.21-2.01 11.42-6 16.96-9.3-8.87 11.62-24.06 15.34-37.74 17.74-.08.42-.25 1.26-.34 1.68-.86.21-1.73.42-2.59.63-7.86-1.03-15.76-2.63-22.95-6.07-2.76-1.19-5.52-2.55-7.49-4.88.62-.21 1.87-.61 2.49-.81-5.06-2.47-9.19-6.55-11.91-11.47 6.46 3.57 12.88 7.59 20.31 8.75 7.8 1.11 16.07 4.59 23.74 1.05 7.22-3.57 14.64-7.39 20.12-13.45.61-1.5 1-3.06 1.49-4.59 1.05-2.71 2.31-5.33 3.63-7.91 1.02.81 2.05 1.62 3.07 2.43-1.19 1.15-2.25 2.42-3.29 3.71 5.07-.4 10.76-4.86 9.88-10.35-.42-2.09-.9-4.17-1.34-6.26 1.74-2.92 3.64-5.81 4.73-9.05.97-3.86.31-7.96 1.47-11.78 1.92-5.15 3.6-10.38 5.89-15.38m-69.12 73.89c3.05 1.53 6.54 1.61 9.89 1.52-3.07-1.53-6.52-1.9-9.89-1.52m4.26 5.18c1.47 2.65 4.83 2.51 7.41 3.02 2.05.04 4.8.82 6.23-1.14-4.55-.62-9.08-1.36-13.64-1.88z" fill="#7e4713"/><path d="m98.94 197.78c1.85-11.88 7.6-22.79 14.9-32.22-2.87 5.1-5.04 11.54-2.61 17.24 1.1 3.03 3.71 5.06 5.81 7.38-2.67-.59-5.71-1.84-8.12.12l-.53.55c.02-.55.04-1.65.05-2.2-3.59 5.81-4.79 12.69-5.6 19.37-1.27-.16-2.54-.31-3.81-.46.06-3.26-.03-6.52-.09-9.78z" fill="#e4be43"/><path d="m289.52 184.95c-1.88-5.18-1.56-10.86-.42-16.16 1.14 2.86 1.89 5.94 3.6 8.54 1.64 2.48 4.21 4.08 6.69 5.61-1.35 2.72-2.21 6.47-5.43 7.53-2.48-.75-3.63-3.29-4.44-5.52z" fill="#6c9d29"/><path d="m76.46 180.18c1.81-2.14 3.79-4.13 5.77-6.11.15.49.45 1.49.6 1.98-2.11 2.96-4.18 5.98-5.54 9.37-1.58 3.67-3.1 7.38-4.81 10.99-4.1 8.14-6.47 17.04-8.25 25.94-.09.52-.28 1.57-.37 2.1-.95-10.66 1.94-21.22 5.29-31.23 1.3-4.93 4.5-8.92 7.31-13.04z" fill="#fdfec2"/><path d="m117.74 178.35c-1.17-1.68-.32-4.91 2.19-3.88 2.12.09 1.53 2.57 1.41 3.97-1.2.01-2.43.22-3.6-.09z" fill="#f1f8ef"/><path d="m77.29 185.42c1.36-3.39 3.43-6.41 5.54-9.37.34 1.71 1.41 3.57.43 5.26-1.63 3.88-4.25 7.21-6.42 10.78.27-2.22.34-4.45.45-6.67z" fill="#d7d83e"/><path d="m132.69 178.77c.47-.09 1.42-.28 1.9-.37.09.63.29 1.89.39 2.51-.67-.05-2.02-.17-2.69-.23.1-.48.3-1.43.4-1.91z" fill="#f8fcf7"/><path d="m181.1 178.92c2.77-.81 6.37-.67 7.9 2.2 2.57 3.52-.66 9.04-4.97 8.64-5.32.22-6.47-8.08-2.93-10.84z" fill="#f8fcf7"/><path d="m170.19 184.85c.59-4.38 4.83-6.94 8.99-6.92-1.41 3.94-4.78 6.62-8.99 6.92z" fill="#e9f4ea"/><path d="m251.12 179.71c1.11 1.74 2.23 3.49 3.36 5.23-.54 1.08-1.16 2.13-1.74 3.2-2.75-1.99-2.75-5.54-1.62-8.43z" fill="#6f8812"/><path d="m267.65 198.65c2.22-5.74 2.81-11.9 4.15-17.87-1.56 13.4-.89 27.1-4.31 40.25-1.65 3.56-2.78 7.34-4.5 10.88 1.12-7.33 3.86-14.4 3.9-21.88.24-3.79-.67-7.75.76-11.38z" fill="#365018"/><path d="m77.29 185.42c-.11 2.22-.18 4.45-.45 6.67-4.67 13.99-7.88 28.7-7.13 43.53l.04 1.55c-.89-6.55-.73-13.17-.82-19.76-1.4 1.8-2.96 3.46-4.7 4.94 1.78-8.9 4.15-17.8 8.25-25.94 1.71-3.61 3.23-7.32 4.81-10.99z" fill="#9bcc2b"/><path d="m174.53 187.7c3.37-.92 3.86 4.88.45 4.63-2.85.27-3.43-4.55-.45-4.63z" fill="#f4f9e5"/><path d="m102.84 208.02c.81-6.68 2.01-13.56 5.6-19.37-.01.55-.03 1.65-.05 2.2.17 1.85-.65 4.42 1.31 5.53 2.45 2.08 5.74.96 8.59.79 1.68.23 3.35.59 5.02.91-.84.93-2.39 1.6-2.22 3.09.62.21 1.85.64 2.46.85-.32 5.03-.54 10.25 1.15 15.09 1.32 4.11 3.89 7.63 6.27 11.17 1.82 7.12 10.36 8.66 16.53 9.9-.04.37-.11 1.12-.15 1.5 3.65.05 7.43.69 11-.31 8-3.5 14.55-9.78 22.66-12.98-5.48 6.06-12.9 9.88-20.12 13.45-7.67 3.54-15.94.06-23.74-1.05-7.43-1.16-13.85-5.18-20.31-8.75 2.72 4.92 6.85 9 11.91 11.47-.62.2-1.87.6-2.49.81-1.34-1.35-2.78-2.59-4.25-3.78-4.71-3.9-8.88-8.45-14.08-11.73.64 2.08 1.32 4.16 2.01 6.23-.33.52-.98 1.56-1.31 2.07-3.26-7.66-5.21-15.98-5.83-24.29.01-.7.03-2.1.04-2.8z" fill="#cf8e2d"/><path d="m108.92 190.3c2.41-1.96 5.45-.71 8.12-.12l.59.14.35.71c.2.4.61 1.19.82 1.59 1.9.73 3.89 1.23 5.86 1.75.89.31 1.78.64 2.66.99.01.87.02 1.74.03 2.62-1.35-.19-2.72-.26-4.04.1-1.67-.32-3.34-.68-5.02-.91-.88-4.56-5.45-5.92-9.37-6.87z" fill="#f6e67e"/><path d="m68 190.58c.29.66.86 1.98 1.15 2.64-3.35 10.01-6.24 20.57-5.29 31.23-.28 2.02-.64 4.04-.96 6.06-2.6-1.62-2.86-4.36-2.36-7.12-.39-.5-1.18-1.5-1.58-1.99 2.39-10.45 5.22-20.8 9.04-30.82z" fill="#d6f072"/><path d="m323.96 297.83c2.24-5.03 2.57-10.57 3.67-15.89.3 4.69-.03 9.42-1.72 13.84-.96 5.25-4.45 9.37-7.64 13.44-2.56 3.27-5.87 5.84-9.35 8.07 6.12-5.51 11.65-11.88 15.04-19.46z" fill="#d6f072"/><path d="m108.39 190.85.53-.55c3.92.95 8.49 2.31 9.37 6.87-2.85.17-6.14 1.29-8.59-.79-1.96-1.11-1.14-3.68-1.31-5.53z" fill="#bc3513"/><path d="m164.06 197.95c.03-2.43.58-4.82.85-7.23.33 4.53 2.69 8.47 6.03 11.44 1.55 1.58 2.83 3.8 5.18 4.25 3.29.79 6.7.79 10.06.93-.88.68-1.72 1.4-2.57 2.11-2 1.03-4.2 1.56-6.35 2.16-1.18-.89-2.39-1.75-3.64-2.54-4.6-2.1-8.58-6-9.56-11.12z" fill="#efcd65"/><path d="m315.13 192.97c5.24-3.31 10.46 1.5 14.37 4.66 10.34 6.98 17.45 17.83 21.95 29.28 2.25 5.74 2.3 12.37-.97 17.75 1.49-11.99-3.95-23.68-11.16-32.94-4.61-5.42-9.53-10.87-15.93-14.19-2.78-1.48-5.59-2.89-8.26-4.56z" fill="#f4fbcf"/><path d="m124.66 194.37c3.04-.34 6.07-.73 9.1-1.03-.09 1.43-.18 2.86-.31 4.29-2.02.28-4.06.62-6.1.35-.01-.88-.02-1.75-.03-2.62-.88-.35-1.77-.68-2.66-.99z" fill="#e9c153"/><path d="m315.03 192.91.1.06c2.67 1.67 5.48 3.08 8.26 4.56 6.4 3.32 11.32 8.77 15.93 14.19 7.21 9.26 12.65 20.95 11.16 32.94l-.03.55c-3.45 5.35-5.84 11.36-9.99 16.25-6.41 7.51-12.77 15.37-20.98 20.97-8.19 6.18-16.3 12.76-22.73 20.8-.64.03-1.91.1-2.55.13.07.68.19 2.04.25 2.72.07.68.2 2.05.27 2.73-1.94-.73-3.87-1.46-5.81-2.15l-.44-.17c-.95-2.8-.86-5.96 1.31-8.21.36-.49.72-.98 1.1-1.45-.07-1.62-.14-3.23-.21-4.84-4.6 1.35-11.02 3.45-14.54-1 .03-4.11 4.63-6.63 3.98-10.86-3.77.35-7.6 1.46-11.38.61-.52-3.01.76-6.19 3.52-7.64 5.46-3.74 12.33-2.87 18.56-2.84-1.6-2.71-4.02-4.76-6.33-6.84 2.19-1.13 5.28-1.9 6.34-4.26-1.65-2.63-5.28-3.36-8.11-2.48-2.95 1-5.49 2.89-8.09 4.56.36-1.83.47-3.74 1.16-5.48 3.73-2.9 8.4-5.26 13.25-4.07 6.3 1.57 9.61 7.88 15.25 10.6v-.98c.05-1.67.11-3.33.18-4.99 1.96 2.16 3.94 4.31 5.91 6.47-2.08 1.42-4.62 2.72-5.44 5.3-.61 2.4-.65 5.16.7 7.33 1.84 2.06 4.9 2.38 7.43 1.57 6.09-1.78 10.91-6.24 14.94-10.97 6.43-6.26 11.31-13.95 14.98-22.11 2.16-4.28 3.97-8.9 3.67-13.79-1.33.36-3.15-.02-3.97 1.37-.44 1.21-.81 2.44-1.11 3.69-1.91-15.25-11.4-29.9-25.56-36.35-1.42-.71-1.71-2.44-2.44-3.7.37-.55 1.09-1.66 1.46-2.22z" fill="#99c931"/><path d="m141.46 194.6c1.2-1.48 2.84-.39 4.28-.04-.03 1.65-.14 4.3-2.5 3.79-2.15.16-2.17-2.24-1.78-3.75z" fill="#1d1308"/><path d="m294.04 209.32c1.23-5.4 5.82-9.68 5.55-15.47 1.12 7 1.67 15.04-2.72 21.09-1.09 1.8-3.14 2.42-5.04 2.94-4.44-4.57-4.18-11.58-2.82-17.36 1.94 2.78 3.33 5.88 5.03 8.8z" fill="#6d9f2b"/><path d="m218.26 198.36c.17-1.7 1.25-3.04 2.46-4.14 2.47 16.77-.45 34.97-10.78 48.74-5.36 6.88-10.96 13.92-18.53 18.48-7.75 4.35-15.68 8.7-24.46 10.54-9.94 2.16-20.58 2.44-30.29-.89-1.39-.55-2.77-1.11-4.14-1.68.84-1.43 1.7-2.86 2.55-4.29 8.5 1.75 17.37 1.59 25.86-.15 7.08-1.65 14.37-3.36 20.39-7.67 20.66-12.44 34.17-35.17 36.94-58.94z" fill="#d0ac2d"/><path d="m153.69 196.6c.84.04 1.68.07 2.52.11.4.63 1.18 1.89 1.57 2.53-1.23.81-2.62 1.92-4.18 1.23-1.7-1.02-.42-2.55.09-3.87z" fill="#151411"/><path d="m127.35 197.98c2.04.27 4.08-.07 6.1-.35-1.96 1.54-4.24 2.57-6.5 3.57 2.79 7.3 9.6 12.49 16.81 14.99 9.16 2.48 19.9 2.41 27.86-3.34-1.37-1.15-2.73-2.3-4.11-3.44 2.04-.08 4.08-.17 6.11-.34 1.25.79 2.46 1.65 3.64 2.54.52.41 1.55 1.22 2.06 1.63-1.5.95-3.27 1.06-4.98 1.23-2.46 8.1-8.4 14.75-15.67 18.92-5.71 2.63-12.35 3.2-18.36 1.35-3.62-1.3-6.47-4.01-9.34-6.46-2.38-3.54-4.95-7.06-6.27-11.17-1.69-4.84-1.47-10.06-1.15-15.09-.61-.21-1.84-.64-2.46-.85-.17-1.49 1.38-2.16 2.22-3.09 1.32-.36 2.69-.29 4.04-.1z" fill="#0a190d"/><path d="m98.2 213.74c.05-5.32-.37-10.71.74-15.96.06 3.26.15 6.52.09 9.78 1.27.15 2.54.3 3.81.46-.01.7-.03 2.1-.04 2.8-1.54.96-3.07 1.93-4.6 2.92z" fill="#fae16b"/><path d="m248.19 199.14c2.98-1.55.14 3.33 0 0z" fill="#d0c023"/><path d="m237.09 204.44c.57-2.06 2.51-3.13 4.08-4.34 1.51 3.33 4.5 7.43 2.01 11.03-1.02 2.19-4.13 1.71-5.52.2-1.76-1.86-1.73-4.73-.57-6.89m2.05-1.18c-1.09.54-2.22 2.35-1.26 3.44 2.08 1.05 3.52-3.14 1.26-3.44z" fill="#0f150d"/><path d="m170.94 202.16c4.67 3.41 10.74 3.56 16.08 1.83 2.26-.18 4.51.07 6.74.43-1.92 2.21-4.9 2.43-7.58 2.92-3.36-.14-6.77-.14-10.06-.93-2.35-.45-3.63-2.67-5.18-4.25z" fill="#ede275"/><path d="m239.14 203.26c2.26.3.82 4.49-1.26 3.44-.96-1.09.17-2.9 1.26-3.44z" fill="#ebf0e8"/><path d="m193.76 204.42c.17-.25.52-.75.69-1 .44 2.09.92 4.17 1.34 6.26-1.73 2.64-4.08 4.76-6.59 6.64-1.02-.81-2.05-1.62-3.07-2.43-.83-1.49-1.68-2.97-2.52-4.44.85-.71 1.69-1.43 2.57-2.11 2.68-.49 5.66-.71 7.58-2.92z" fill="#b03712"/><path d="m177.26 211.61c2.15-.6 4.35-1.13 6.35-2.16.84 1.47 1.69 2.95 2.52 4.44-1.32 2.58-2.58 5.2-3.63 7.91-6.48 5.32-14.21 8.72-21.74 12.27-.52-.17-1.57-.51-2.09-.68 7.27-4.17 13.21-10.82 15.67-18.92 1.71-.17 3.48-.28 4.98-1.23-.51-.41-1.54-1.22-2.06-1.63z" fill="#ce8f2f"/><path d="m195.79 209.68c.88 5.49-4.81 9.95-9.88 10.35 1.04-1.29 2.1-2.56 3.29-3.71 2.51-1.88 4.86-4 6.59-6.64z" fill="#9a5b1f"/><path d="m98.2 213.74c1.53-.99 3.06-1.96 4.6-2.92.62 8.31 2.57 16.63 5.83 24.29.16.22.48.67.64.89 1.48 2.12 2.86 4.3 4.43 6.36-1.86-.69-3.79-1.18-5.72-1.64l-.58-.15c-4.76-8.21-8.29-17.34-9.2-26.83z" fill="#e8be45"/><path d="m312.05 220.54c.79-2.63 1.8-5.3 3.99-7.09-.59 2.68-1.2 5.84-3.99 7.09z" fill="#354b2a"/><path d="m279.96 229.94c-.88-5.15.75-10.2 3.03-14.76.26 2.61.46 5.25.37 7.89-.62 2.5-1.99 4.73-3.4 6.87z" fill="#7da83f"/><path d="m64.23 222.35c1.74-1.48 3.3-3.14 4.7-4.94.09 6.59-.07 13.21.82 19.76.19 1.64.46 3.28.83 4.9.92 3.4 2.21 6.68 3.5 9.95.8-.73 1.6-1.46 2.39-2.18-.27.5-.81 1.5-1.08 2.01.04 1.71.07 3.43.09 5.14-1.39-.73-2.76-1.49-4.12-2.27-2.29-2.76-4.02-5.92-5.69-9.08-.75.24-1.49.48-2.23.73-.95-1.11-1.9-2.22-2.79-3.37-.19-.32-.56-.97-.75-1.3.2-.39.38-.78.57-1.16 1.21-2.34 1.72-4.94 2.07-7.52.11-.84.23-1.68.36-2.51.32-2.02.68-4.04.96-6.06.09-.53.28-1.58.37-2.1m3.91 23.05c-.93 1.2-.72 1.89.63 2.08.94-1.2.73-1.9-.63-2.08z" fill="#8bbe25"/><path d="m58.96 221.4c.4.49 1.19 1.49 1.58 1.99-.5 2.76-.24 5.5 2.36 7.12-.13.83-.25 1.67-.36 2.51-.41-1.32-1.29-2.18-2.65-2.57-.27 3.37-.05 6.76.58 10.09-.19.38-.37.77-.57 1.16.19.33.56.98.75 1.3.72 3.69.45 7.48-.28 11.14-.89-3.88-1.89-7.73-2.64-11.64-.78-6.2.36-12.42.66-18.61.14-.63.43-1.87.57-2.49z" fill="#b9d65c"/><path d="m160.76 234.07c7.53-3.55 15.26-6.95 21.74-12.27-.49 1.53-.88 3.09-1.49 4.59-8.11 3.2-14.66 9.48-22.66 12.98-3.57 1-7.35.36-11 .31.04-.38.11-1.13.15-1.5 4.7-.29 9.07-2.12 13.26-4.11z" fill="#9a5a17"/><path d="m302.53 220.89c2.1 4.53 1.48 9.65 2.09 14.47.97.51 1.94 1.02 2.91 1.54-1.08 1.74-1.83 4.54-4.27 4.7-2.06-1.07-1.8-3.65-1.84-5.6.2-5.05.66-10.08 1.11-15.11z" fill="#5b8726"/><path d="m56.5 226.55c.64-.88 1.27-1.77 1.89-2.66-.3 6.19-1.44 12.41-.66 18.61.71 13.82 1.89 28.35 9.55 40.34 5.55 12.99 13.07 25.54 24.48 34.24-10.26-6.3-19.41-14.67-25.58-25.08-3.84-6.79-7.03-14-8.87-21.61-3.99-14.72-3.03-30.14-2.27-45.21l.2.19c.32.3.95.88 1.26 1.18z" fill="#f6fccf"/><path d="m107.93 226.81c5.2 3.28 9.37 7.83 14.08 11.73 2.24 2.31 4.12 4.94 6.06 7.5-1.81-.29-3.64-.46-5.47-.64-3.57-2.78-6.84-5.94-9.43-9.67.52 1.27 1.55 3.8 2.07 5.07-1.96-1.66-3.95-3.24-5.97-4.8-.16-.22-.48-.67-.64-.89.33-.51.98-1.55 1.31-2.07-.69-2.07-1.37-4.15-2.01-6.23z" fill="#884515"/><path d="m130.97 228.28c2.87 2.45 5.72 5.16 9.34 6.46 6.01 1.85 12.65 1.28 18.36-1.35.52.17 1.57.51 2.09.68-4.19 1.99-8.56 3.82-13.26 4.11-6.17-1.24-14.71-2.78-16.53-9.9z" fill="#c6a446"/><path d="m287.6 231.54c1.41-1.52 4.51-1.87 5.32.45 1.52 3.8 2.01 7.93 3.39 11.78-4.24-1.41-8.72-1.67-13.15-1.25.73-3.86 1.26-8.25 4.44-10.98z" fill="#508025"/><path d="m59.89 230.45c1.36.39 2.24 1.25 2.65 2.57-.35 2.58-.86 5.18-2.07 7.52-.63-3.33-.85-6.72-.58-10.09z" fill="#d4f27a"/><path d="m330.25 230.94c1.46 2.99 3.41 5.78 4.5 8.95-2.11 6.53-5.74 12.47-10.05 17.78-2.13 2.38-4.83 4.64-8.16 4.82 2.3-4.03 5.21-7.72 6.91-12.08 2.51-6.4 5.43-12.7 6.8-19.47z" fill="#416b28"/><path d="m225.61 232.52c.51.03 1.52.08 2.03.11.01 1.38-.05 2.87-1.65 3.31-.52-.65-1.04-1.29-1.56-1.93.29-.37.88-1.12 1.18-1.49z" fill="#0f190b"/><path d="m213.55 280.44c.68-2.68 3.67-2.23 5.75-1.91.52 1.78 1.65 4.14-.6 5.23-2.24 2.09-6.31-.36-5.15-3.32z" fill="#0f190b"/><path d="m77.97 234.45c3.33.08-1.48 3.02 0 0z" fill="#bda615"/><path d="m69.71 235.62c2.23 2 4.06 4.38 5.48 7.02-.44.36-1.31 1.1-1.74 1.46-.28-.64-.84-1.92-1.12-2.56-.44.14-1.31.4-1.75.53-.37-1.62-.64-3.26-.83-4.9z" fill="#dcd63b"/><path d="m99.25 239.79c4.32 6.41 9.28 12.44 15.37 17.26 4.05 4.61 9.19 8.1 14.6 10.94.15.44.46 1.32.61 1.77-1.01 0-2.03 0-3.05.02-5.77-1.12-10.23-5.26-14.74-8.75-6.62-5.36-10.1-13.38-12.79-21.24z" fill="#fdfcd6"/><path d="m107.98 240.72c1.93.46 3.86.95 5.72 1.64 2.99 2.74 4.74 6.67 8 9.2 5.68 4.34 12.67 6.35 19.44 8.31-12.77-2.17-25.46-8.47-33.16-19.15z" fill="#b98931"/><path d="m137.42 241.1c3.37-.38 6.82-.01 9.89 1.52-3.35.09-6.84.01-9.89-1.52z" fill="#9d6725"/><path d="m57.73 242.5c.75 3.91 1.75 7.76 2.64 11.64 2.52 10.56 6.35 20.86 11.23 30.56.05.92.16 2.75.22 3.66-1.55-1.82-3.09-3.63-4.54-5.52-7.66-11.99-8.84-26.52-9.55-40.34z" fill="#122410"/><path d="m60.65 243c.89 1.15 1.84 2.26 2.79 3.37.74-.25 1.48-.49 2.23-.73 1.67 3.16 3.4 6.32 5.69 9.08.16 3.46.75 6.89 1.81 10.19 3.02 10.33 7.9 20.78 16.73 27.4.55-1.16 1.11-2.32 1.68-3.47 9.58 7.74 20.45 14.29 32.72 16.6-.1 2.44-.49 5.17.88 7.35 1.42 2.23 5.1 1.96 6.5-.14.74-1.19.98-2.59 1.31-3.92 10.93-.02 21.89.13 32.79-.78 6.55-.23 14-1.43 18.55-6.59.36.17 1.08.52 1.44.7 3.26.63 6.3-1.15 9.28-2.17 8.94-4.28 17.46-9.56 25.05-15.96.52.52 1.57 1.55 2.09 2.06 4-1.36 6.7-4.61 8.92-8.03 1.31.16 2.63.34 3.95.5.15.63.46 1.88.62 2.5-2.9 1.97-5.49 4.32-7.81 6.93-4.51 4.97-10.16 8.69-15.93 12.01-6.17 3.64-13.13 5.54-19.6 8.5-10.08 4.76-20.58 8.64-31.33 11.59-9.38 2.62-19.26 2.77-28.89 1.78-12.1-.52-24.03-4.26-34.48-10.34-5.35-3.9-10.32-8.33-15.15-12.86-4.19-4.16-7.36-9.17-10.89-13.87-4.88-9.7-8.71-20-11.23-30.56.73-3.66 1-7.45.28-11.14m75.68 73.23c.53.48.53.48 0 0z" fill="#a3cf2f"/><path d="m87.79 243.52c2.93-.41 3.83 2.35 3.54 4.73-1.73-1.12-3.82-2.32-3.54-4.73z" fill="#cdbf29"/><path d="m312.05 252.23c.69-3.18 2.12-6.15 4.14-8.7-.38 3.28-1.72 6.41-4.14 8.7z" fill="#253920"/><path d="m68.14 245.4c1.36.18 1.57.88.63 2.08-1.35-.19-1.56-.88-.63-2.08z" fill="#447504"/><path d="m122.6 245.4c1.83.18 3.66.35 5.47.64 10.39 7.23 23.43 10.64 36 8.7-2.45-.54-4.9-1.08-7.37-1.47.86-.21 1.73-.42 2.59-.63 5.11-.44 10.26-.22 15.39-.31-6.84 3.04-14.03 6.53-21.75 5.33-10.87-1.48-21.9-4.96-30.33-12.26z" fill="#794b1b"/><path d="m141.68 246.28c4.56.52 9.09 1.26 13.64 1.88-1.43 1.96-4.18 1.18-6.23 1.14-2.58-.51-5.94-.37-7.41-3.02z" fill="#2f1705"/><path d="m213.76 261.99c4.6-5.4 9.32-10.8 15.13-14.96-1.53 8.28-7.34 15.01-13.49 20.43-.59-1.81-1.13-3.64-1.64-5.47z" fill="#86b41b"/><path d="m275.78 255.76c2.56-4.26 6.98-8.05 12.24-7.71 7.78-.11 13.72 6.45 16.26 13.26v.98c-5.64-2.72-8.95-9.03-15.25-10.6-4.85-1.19-9.52 1.17-13.25 4.07z" fill="#f6fdd3"/><path d="m282.71 256.68c2.83-.88 6.46-.15 8.11 2.48-1.06 2.36-4.15 3.13-6.34 4.26-3.44.28-7.51 1.01-9.86-2.18 2.6-1.67 5.14-3.56 8.09-4.56z" fill="#5c872f"/><path d="m114.62 257.05c5.83 4.8 13.29 6.38 20.45 8.07-.85 1.43-1.71 2.86-2.55 4.29-1.11-.46-2.22-.93-3.3-1.42-5.41-2.84-10.55-6.33-14.6-10.94z" fill="#cbad39"/><path d="m220.1 283.93c8.88-7.12 16.62-15.91 21.73-26.14-.27 2.31-.36 4.64-.43 6.97 1.4.98 2.79 1.96 4.19 2.96-.8 2.03-1.61 4.09-1.78 6.29l-.24 1.51c-.39.15-1.15.44-1.53.58-2.39.58-4.72 1.41-6.98 2.36-1.32-.16-2.64-.34-3.95-.5-2.22 3.42-4.92 6.67-8.92 8.03-.52-.51-1.57-1.54-2.09-2.06z" fill="#94ca2a"/><path d="m210.47 269.67c-.31-2.73-.07-7.07 3.29-7.68.51 1.83 1.05 3.66 1.64 5.47l.24.71c-1.24 1.19-3.83 4.03-5.17 1.5z" fill="#dbd436"/><path d="m83.32 263.43c1.63-.51 3.51-1.06 4.87.36 3.37 2.56 2.61 7.13 2.27 10.79-5.8.86-7.54-6.69-7.14-11.15z" fill="#86b21b"/><path d="m129.22 267.99c1.08.49 2.19.96 3.3 1.42 1.37.57 2.75 1.13 4.14 1.68-3.25 2.54-7.39.03-10.83-.81l.95-.5c1.02-.02 2.04-.02 3.05-.02-.15-.45-.46-1.33-.61-1.77z" fill="#f6ea7e"/><path d="m235.06 278.46c2.26-.95 4.59-1.78 6.98-2.36l1.4.06c-3.27 5.04-7.96 8.88-12.07 13.19-6.42 5.63-12.23 12.1-19.9 16.08.15-1.84.31-3.69.47-5.53 5.77-3.32 11.42-7.04 15.93-12.01 2.32-2.61 4.91-4.96 7.81-6.93-.16-.62-.47-1.87-.62-2.5z" fill="#70b82b"/><path d="m249.78 281.85c3.02-2.49 6.41-4.48 10.05-5.94-.58 3.94-2.16 7.6-4.05 11.08.69-.2 2.07-.58 2.77-.77-.46 1.85-1.17 3.64-2.24 5.24-8.34 8.33-19 13.95-30.04 17.86 1.62-1.72 3.3-3.39 5.26-4.73 6.24-4.15 12.41-8.72 17.04-14.7-3.19-1.2-6.61-2.09-10-1.27 1.04-1.71 1.63-4.36 3.73-5.01 2.51-.44 5.4-.01 7.48-1.76z" fill="#183013"/><path d="m268.73 280.74c3.78.85 7.61-.26 11.38-.61.65 4.23-3.95 6.75-3.98 10.86 3.52 4.45 9.94 2.35 14.54 1 .07 1.61.14 3.22.21 4.84-.38.47-.74.96-1.1 1.45-3.73.23-7.1 4.31-10.87 1.85-5.22-2.98-3.92-9.89-1.68-14.38-1.75 1.16-3.76 3.36-6.01 1.94-2.01-1.31-3.81-4.5-2.82-6.68z" fill="#5f882d"/><path d="m99.22 281.3c1.61-.59 2.17-.06 1.7 1.6-1.62.58-2.18.05-1.7-1.6z" fill="#d4c02e"/><path d="m296.75 303.23c6.43-8.04 14.54-14.62 22.73-20.8 1.39 1.66 2.26 3.87.73 5.78-4 5.89-10 10.09-15.78 14.08-2.23 1.73-5.1 1.2-7.68.94z" fill="#66992f"/><path d="m67.28 282.84c1.45 1.89 2.99 3.7 4.54 5.52-.06-.91-.17-2.74-.22-3.66 3.53 4.7 6.7 9.71 10.89 13.87 4.83 4.53 9.8 8.96 15.15 12.86 10.45 6.08 22.38 9.82 34.48 10.34 9.63.99 19.51.84 28.89-1.78 10.75-2.95 21.25-6.83 31.33-11.59 6.47-2.96 13.43-4.86 19.6-8.5-.16 1.84-.32 3.69-.47 5.53-11.18 7.67-23.57 13.44-36.46 17.6-20.54 5.05-42.33 6.98-63.09 1.93-7.19-1.12-14.14-3.78-20.16-7.88-11.41-8.7-18.93-21.25-24.48-34.24m34.03 33.43c.51.5.51.5 0 0z" fill="#7cb829"/><path d="m262.15 282.98c.96 4.11 3.66 7.35 6.49 10.34-1.1 1.71-2.23 3.4-3.2 5.19-1.14-.02-2.28-.04-3.41-.05-.9-3.08-2.39-6.05-5.72-7 1.07-1.6 1.78-3.39 2.24-5.24 1.23-1.04 2.41-2.15 3.6-3.24z" fill="#2b511c"/><path d="m124.3 305.44c1.39-6.03 3.51-11.86 5.81-17.59-.12 7.09 1.48 13.98 2.88 20.88-.33 1.33-.57 2.73-1.31 3.92-1.4 2.1-5.08 2.37-6.5.14-1.37-2.18-.98-4.91-.88-7.35z" fill="#0c1a0d"/><path d="m238.57 288.62c3.39-.82 6.81.07 10 1.27-4.63 5.98-10.8 10.55-17.04 14.7-1.96 1.34-3.64 3.01-5.26 4.73 11.04-3.91 21.7-9.53 30.04-17.86 3.33.95 4.82 3.92 5.72 7-4.92 4.77-8.96 10.99-15.6 13.53 1.36-3.28 2.57-6.62 3.48-10.06-6.13 3.14-12.26 6.55-17.6 10.92-2.53 3.15-6.11 5.03-9.57 6.95-4.35 2.14-4.43 8.05-8.48 10.52-3.93 2.63-8.5 4.2-13.14 4.98-2.27-1.63-4.76-3.04-7.6-3.19-1.08 2.07-2.18 4.14-3.31 6.2-3.18-.54-6.38-.94-9.6-1.09 2.5 2.16 5.31 3.9 7.8 6.07-.69-.04-2.06-.11-2.74-.15v1.08c-1.77 1.19-3.26 3.35-5.59 3.3-3.68.06-7.37 0-11.06.15-5.66.4-9.93-4.28-15.43-4.84-.07.92-.14 1.84-.21 2.76-3.11-2-6.59-3.4-10.32-3.56.27 1.05.54 2.11.81 3.18-5.67-.32-11.38-1.29-16.61-3.57-4.01-1.74-6.59-5.46-10.23-7.73-2-1.28-4.12-2.37-6.19-3.52 23.41 5.93 48.5 3.79 71.06-4.52 16.13-4.73 30.59-14 43.49-24.59 4.77-3.81 8.66-8.58 13.18-12.66m-78.68 52.12c1.32 2.15 2.76 4.5 5.25 5.43 3.36 1.17 7 .92 10.45.38-5.56-1.05-10.51-3.73-15.7-5.81z" fill="#3e6e23"/><path d="m121.09 293.22c3.31.31-1.67 2.92 0 0z" fill="#b7a018"/><path d="m265.44 298.51c.97-1.79 2.1-3.48 3.2-5.19.39 2.16.79 4.32 1.23 6.48-1.02 1.37-2.04 2.73-3.08 4.08-.94-1.61-2.13-3.43-1.35-5.37z" fill="#4a7028"/><path d="m162.78 301.11c2.17-3.99 7.26-6.03 11.63-6.2-3.87 2.08-7.38 4.92-11.63 6.2z" fill="#c2c322"/><path d="m150.19 299.11c1.63-.52 2.17.03 1.61 1.66-1.64.52-2.17-.04-1.61-1.66z" fill="#cfbf26"/><path d="m184.45 300.67c.98-.36 2.06-1.48 3.15-.87-.14 1.06-.75 1.81-1.83 2.26-.36-.18-1.08-.53-1.44-.7z" fill="#a1b015"/><path d="m141.09 301.51c3.35.11-1.51 2.99 0 0z" fill="#beab15"/><path d="m174.9 302.96c3.04-1.29 6.35-1.64 9.55-2.29l-.12.69c-4.55 5.16-12 6.36-18.55 6.59 1.71-.35 3.42-.74 5.03-1.42 1.53-1.01 2.35-2.87 4.09-3.57z" fill="#d8d531"/><path d="m249.91 301.93c-.91 3.44-2.12 6.78-3.48 10.06-3.01.48-5.74 1.88-8.6 2.83-1.91-.45-3.7-1.28-5.52-1.97 5.34-4.37 11.47-7.78 17.6-10.92z" fill="#1b3416"/><path d="m159.16 304.03c1.64-.52 2.19.03 1.64 1.65-1.65.51-2.2-.04-1.64-1.65z" fill="#cfc128"/><path d="m275.55 310.4c-2.21-1.8-1.36-4.82-.94-7.2 2.87.5 7.72.84 7.57 4.82.28 3.31-4.63 4.66-6.63 2.38z" fill="#4f7d29"/><path d="m154.49 305.15c.94-1.48 3.65-.01 2.4 1.51-.96 1.44-3.64 0-2.4-1.51z" fill="#b9b724"/><path d="m294.45 306.08c1.56 2.58 4.25 3.9 6.98 4.91-4.44 3.45-10.72.56-12.52-4.33 1.94.69 3.87 1.42 5.81 2.15-.07-.68-.2-2.05-.27-2.73z" fill="#528031"/><path d="m246.68 317.67c5.19-2.43 8.33-7.32 12.04-11.45 1.6 5.61 2.55 12.86-2.13 17.28-4.71 2.55-10.51 2.86-15.67 1.6-4.71-1.11-9.47-1.99-14.23-2.85 6.62-1.76 14-.71 19.99-4.58z" fill="#689c29"/><path d="m312.83 321.81c2.87-3.25 5.09-7.03 8.2-10.07-1.81 4.45-3.63 8.93-6.27 12.97-2.48 1.58-5.21 2.68-7.95 3.71 1.32-2.78 4.05-4.37 6.02-6.61z" fill="#8db540"/><path d="m101.31 316.27c.51.5.51.5 0 0z" fill="#407f01"/><path d="m136.33 316.23c.53.48.53.48 0 0z" fill="#699504"/><path d="m297.79 330.98c1.21-4.82 5.55-8.52 10.71-7.86-2.96 3.35-6.14 6.88-10.71 7.86z" fill="#5f9327"/><path d="m271.18 334.31c4.49-2.62 7.79-6.73 12.09-9.57 1.18 6.92-6.55 9.7-12.09 9.57z" fill="#608f2d"/><path d="m89.06 327.06c3.96 2.04 7.6 4.61 11.37 6.96-5.05 1.04-9.28-2.74-11.37-6.96z" fill="#3a592f"/><path d="m305.74 330.09c-.22 2.02-.42 4.03-.63 6.05-2.85 2.52-4.86 5.81-7.54 8.49-5.44 5.86-12.89 10.07-15.96 17.83-3.99-.44-7.03 2.72-10.41 4.29-8.3 5.2-17.13 9.79-26.82 11.7-.68-.21-2.06-.63-2.75-.85 9.09-2.91 17.63-7.31 25.21-13.12-12.65 6.19-25.58 12.66-39.77 14.24-5.42.84-10.88.18-16.29-.31 6.02-1.08 12.21-.97 18.22-2.23 8.83-1.15 16.89-5.05 24.98-8.5 4.9-1.17 9.34-3.56 13.36-6.53 5.61-2.52 10.81-5.79 15.51-9.75 5.66-2.91 10.93-6.69 14.71-11.89 2.92-2.97 6.1-5.74 8.18-9.42z" fill="#a2c62f"/><path d="m208.21 336.54c3.22-1.9 6.95-3.41 10.76-2.89 3.13.45 6.18 1.32 9.25 2.08-4.15 5.39-11.66 4.26-17.31 2.39-.8-.57-2.76-.25-2.7-1.58z" fill="#66942d"/><path d="m242.72 342.57c4.27-2.09 9.01-2.97 13.58-4.2-1.59 5.84-8.9 5.99-13.58 4.2z" fill="#618d32"/><path d="m106.95 339.14c3.57 1.45 7.18 2.87 10.53 4.79-4.3 1.09-8.26-1.22-10.53-4.79z" fill="#4d6d3e"/><path d="m287.88 341.91c3.24-.73 6.45-1.62 9.68-2.4-3.78 5.2-9.05 8.98-14.71 11.89 1.01-3.48 3.25-6.38 5.03-9.49z" fill="#56851f"/><path d="m159.89 340.74c5.19 2.08 10.14 4.76 15.7 5.81-3.45.54-7.09.79-10.45-.38-2.49-.93-3.93-3.28-5.25-5.43z" fill="#72a139"/><path d="m185.67 343.14c.68.04 2.05.11 2.74.15 8.07 2.76 16.09 5.75 24.39 7.8-3.91 4.17-10.37 4.38-15.36 2.24-4.76-1.81-8.07-5.82-11.77-9.11 0-.27 0-.81 0-1.08z" fill="#64982c"/><path d="m254.07 349.75c8.73-.5 16.68-4.55 25.28-5.83-4.21 3.61-7.62 8.47-12.95 10.54-4.69 1.57-9.44-1.09-12.33-4.71z" fill="#57872b"/><path d="m135.65 349.9c6.49 2.4 12.63 5.68 19.31 7.59-7.13 3.65-16.48-.17-19.31-7.59z" fill="#5c872e"/><path d="m225.12 353.91c5.86-2.14 12.19-2.13 18.03.07-3.87 6.44-13.3 4.07-18.03-.07z" fill="#5d882b"/><path d="m118.58 352.65c3.92 1.82 8.13 2.93 12.01 4.8.14.35.42 1.03.56 1.37-5.04.91-10.19-1.65-12.57-6.17z" fill="#466530"/><path d="m179.73 360.52c4.03 1.05 8.44 1.06 12.11 3.19-4.25 1.19-9.17.31-12.11-3.19z" fill="#4f6a37"/><path d="m253.01 363c4.86.03 9.57-1.08 14.33-1.85-4.02 2.97-8.46 5.36-13.36 6.53-5.05-.21-10.26 2.69-15.1.21 5.03-.71 9.42-3.28 14.13-4.89z" fill="#5b8a29"/><path d="m271.2 366.75c3.38-1.57 6.42-4.73 10.41-4.29.46.01 1.37.04 1.82.05-2.25 3.11-6.14 4.04-9.51 5.4-.91-.39-1.82-.78-2.72-1.16z" fill="#4f6d19"/><path d="m162.6 364.37c5.49.73 11.01 1.14 16.55 1.34-4.78 3.76-11.77 1.34-16.55-1.34z" fill="#60823a"/><path d="m227.07 378.72c14.19-1.58 27.12-8.05 39.77-14.24-7.58 5.81-16.12 10.21-25.21 13.12-7.68 2.13-15.55 3.77-23.54 4.07-3.26-2.45-7.57-1.68-11.35-2.44 1.34-.29 2.67-.67 4.04-.82 5.41.49 10.87 1.15 16.29.31z" fill="#112703"/><path d="m203.9 367.27c9.1.27 18.05-2.2 27.17-1.29-7.15 7.04-19.34 7.42-27.17 1.29z" fill="#59862b"/><path d="m137.89 367.81c3.35.66 6.7 1.27 10.1 1.65-.22.39-.66 1.17-.88 1.56-3.37.18-6.92-.52-9.22-3.21z" fill="#395631"/><path d="m195.38 375.42c2.5-.82 4.29 1.7 6.03 3.05-4.32.03-8.63.25-12.94.05l-1.05-.05c2.22-1.89 5.24-2.29 7.96-3.05z" fill="#3e6125"/><path d="m162.35 375.93c4.19.44 8.43.58 12.61 1.14 2.76 1.03 5.04 3.13 7.96 3.79 4.11 1.05 8.48 1.1 12.41 2.89-5.52.1-11.19-.47-16.27-2.77-5.29-2.76-11.92-1-16.71-5.05z" fill="#3f5a2e"/><path d="m188.47 378.52c4.31.2 8.62-.02 12.94-.05 1.79.1 3.55.52 5.33.76 3.78.76 8.09-.01 11.35 2.44 7.99-.3 15.86-1.94 23.54-4.07.69.22 2.07.64 2.75.85-5.25 2.14-10.92 2.92-16.48 3.89-13.15 1.92-27.22 2.15-39.43-3.82z" fill="#8eb136"/></svg>